<svg version="1.2" xmlns="http://www.w3.org/2000/svg" viewBox="0 0 639 662" width="639" height="662"><defs><linearGradient id="P" gradientUnits="userSpaceOnUse"/><linearGradient id="g1" x2="1" href="#P" gradientTransform="matrix(-14.79,-75.145,269.991,-53.139,259.684,88.493)"><stop stop-color="#b957db"/><stop offset="1" stop-color="#e096ed"/></linearGradient><linearGradient id="g2" x2="1" href="#P" gradientTransform="matrix(-7.053,-34.469,143.253,-29.313,496.426,51.433)"><stop stop-color="#ce81e4"/><stop offset="1" stop-color="#f2aaf4"/></linearGradient><linearGradient id="g3" x2="1" href="#P" gradientTransform="matrix(-24.457,-143.597,206.814,-35.223,210.724,683.986)"><stop stop-color="#392722"/><stop offset="1" stop-color="#796569"/></linearGradient><linearGradient id="g4" x2="1" href="#P" gradientTransform="matrix(-31.752,-48.277,92.226,-60.658,238.57,489.276)"><stop stop-color="#f2ca77"/><stop offset="1" stop-color="#fdf2cf"/></linearGradient><linearGradient id="g5" x2="1" href="#P" gradientTransform="matrix(-14.699,-20.875,47.824,-33.675,239.181,483.317)"><stop stop-color="#c28f6d"/><stop offset="1" stop-color="#eec682"/></linearGradient><linearGradient id="g6" x2="1" href="#P" gradientTransform="matrix(32.584,-54.817,28.672,17.042,156.277,564.787)"><stop stop-color="#483c42"/><stop offset="1" stop-color="#ad775f"/></linearGradient><linearGradient id="g7" x2="1" href="#P" gradientTransform="matrix(-20.154,-30.191,30.761,-20.534,167.827,582.096)"><stop stop-color="#38373c"/><stop offset="1" stop-color="#92756f"/></linearGradient><linearGradient id="g8" x2="1" href="#P" gradientTransform="matrix(13.284,-14.076,12.82,12.098,185.137,517.552)"><stop stop-color="#d19761"/><stop offset="1" stop-color="#f1c878"/></linearGradient><linearGradient id="g9" x2="1" href="#P" gradientTransform="matrix(-30.277,-44.506,128.22,-87.225,122.807,551.476)"><stop stop-color="#edc689"/><stop offset="1" stop-color="#fff3c3"/></linearGradient><linearGradient id="g10" x2="1" href="#P" gradientTransform="matrix(-6.866,13.258,-7.204,-3.731,109.788,548.461)"><stop stop-color="#bf8864"/><stop offset="1" stop-color="#f3c577"/></linearGradient><linearGradient id="g11" x2="1" href="#P" gradientTransform="matrix(-42.571,-69.798,95.319,-58.137,155.293,623.839)"><stop stop-color="#140d0f"/><stop offset="1" stop-color="#4c3937"/></linearGradient><linearGradient id="g12" x2="1" href="#P" gradientTransform="matrix(-14.218,-15.187,41.001,-38.385,156.066,599.213)"><stop stop-color="#2d1f23"/><stop offset="1" stop-color="#473e40"/></linearGradient><linearGradient id="g13" x2="1" href="#P" gradientTransform="matrix(-13.888,-82.359,141.731,-23.9,455.058,669.818)"><stop stop-color="#2e1f1d"/><stop offset="1" stop-color="#5f4c4d"/></linearGradient><linearGradient id="g14" x2="1" href="#P" gradientTransform="matrix(46.141,-59.748,94.053,72.633,531.905,644.912)"><stop stop-color="#271919"/><stop offset="1" stop-color="#564045"/></linearGradient><linearGradient id="g15" x2="1" href="#P" gradientTransform="matrix(32.874,-36.696,128.347,114.979,559.341,585.858)"><stop stop-color="#f5d37e"/><stop offset="1" stop-color="#fffae1"/></linearGradient><linearGradient id="g16" x2="1" href="#P" gradientTransform="matrix(-8.57,4.542,-23.918,-45.132,568.949,543.26)"><stop stop-color="#e2af5c"/><stop offset="1" stop-color="#f8da83"/></linearGradient><linearGradient id="g17" x2="1" href="#P" gradientTransform="matrix(-10.871,-1.692,1.379,-8.863,620.855,630.006)"><stop stop-color="#ca8a56"/><stop offset="1" stop-color="#e4b26e"/></linearGradient><linearGradient id="g18" x2="1" href="#P" gradientTransform="matrix(1.658,-12.177,26.624,3.624,618.929,661.192)"><stop stop-color="#594446"/><stop offset="1" stop-color="#442e39"/></linearGradient><linearGradient id="g19" x2="1" href="#P" gradientTransform="matrix(3.04,-12.014,16.465,4.166,353.029,633.254)"><stop stop-color="#665557"/><stop offset="1" stop-color="#897e7c"/></linearGradient><linearGradient id="g20" x2="1" href="#P" gradientTransform="matrix(-7.654,-0.629,.401,-4.875,421.13,607.425)"><stop stop-color="#66544f"/><stop offset="1" stop-color="#7f6a63"/></linearGradient><linearGradient id="g21" x2="1" href="#P" gradientTransform="matrix(6.129,-11.324,12.885,6.973,334.305,626.018)"><stop stop-color="#4f4040"/><stop offset="1" stop-color="#857674"/></linearGradient><linearGradient id="g22" x2="1" href="#P" gradientTransform="matrix(-15.776,-19.299,34.686,-28.355,350.555,479.742)"><stop stop-color="#9f7d6b"/><stop offset="1" stop-color="#d8c8c2"/></linearGradient><linearGradient id="g23" x2="1" href="#P" gradientTransform="matrix(-9.298,-3.764,7.043,-17.399,443.847,509.409)"><stop stop-color="#9e694e"/><stop offset="1" stop-color="#cf9159"/></linearGradient><linearGradient id="g24" x2="1" href="#P" gradientTransform="matrix(-71.118,24.247,-41.317,-121.186,435.201,461.526)"><stop stop-color="#fde37e"/><stop offset="1" stop-color="#e3b998"/></linearGradient><linearGradient id="g25" x2="1" href="#P" gradientTransform="matrix(-4.017,-5.689,31.653,-22.351,334.363,380.535)"><stop stop-color="#edc5a9"/><stop offset="1" stop-color="#f5daaf"/></linearGradient></defs><style>.a{fill:#b237d4}.b{fill:#8833c5}.c{fill:#751dac}.d{fill:#e0b688}.e{fill:#d0b2e0}.f{fill:#fcedbe}.g{fill:#a738bc}.h{fill:url(#g1)}.i{fill:#ce5de0}.j{fill:#e790f0}.k{fill:url(#g2)}.l{fill:#d572cf}.m{fill:#f1d1aa}.n{fill:#e9e6e7}.o{fill:#e4d6e9}.p{fill:#c2a395}.q{fill:url(#g3)}.r{fill:#b18065}.s{fill:url(#g4)}.t{fill:url(#g5)}.u{fill:url(#g6)}.v{fill:url(#g7)}.w{fill:#725955}.x{fill:url(#g8)}.y{fill:#cf9867}.z{fill:#553f3f}.A{fill:#edca8c}.B{fill:url(#g9)}.C{fill:#986d5c}.D{fill:url(#g10)}.E{fill:url(#g11)}.F{fill:#493839}.G{fill:#ad9e9a}.H{fill:#302125}.I{fill:url(#g12)}.J{fill:#92817e}.K{fill:url(#g13)}.L{fill:url(#g14)}.M{fill:url(#g15)}.N{fill:url(#g16)}.O{fill:url(#g17)}.P{fill:#fdf6d4}.Q{fill:#79554c}.R{fill:url(#g18)}.S{fill:url(#g19)}.T{fill:url(#g20)}.U{fill:url(#g21)}.V{fill:url(#g22)}.W{fill:url(#g23)}.X{fill:url(#g24)}.Y{fill:url(#g25)}</style><path class="a" d="m419.7 37.5c29.1 3.3 48.9 1.8 76.9-7.7q4.4-1.5 8.8-3.2 4.4-1.7 8.7-3.5 4.3-1.9 8.6-3.9 4.2-2.1 8.4-4.3c8.6-4.5 26.1-15.5 34.9-14.9 8.9 5.4 4.8 29.1 3.7 38.3q-0.8 7.5-1.7 15-0.9 7.5-1.9 15-1 7.5-2 15-1 7.5-2.1 14.9c-2.5 17.3-8.1 41.9-3.1 58.8 2.8 9.7 13.9 21.5 20.4 29.4l2.4 2.6q4.5 5.2 9.1 10.4 4.6 5.2 9.1 10.4 4.5 5.2 9 10.4 4.5 5.3 9 10.6c4.1 4.9 12.8 15.2 16.1 20.6 1.6 2.1 3.3 4.7 4.1 7.1 2.7 10.8-10.2 16.9-18 21.6-24.1 14.3-50.2 26.1-77.8 31.5-69.7 15.6-125.6-25-193.3-20.8q-10 0.7-19.8 2.2-9.9 1.6-19.6 4-9.7 2.3-19.1 5.6-9.5 3.2-18.6 7.3c-5.1 2.2-22.4 11.5-25.9 12.3l-4.7 2.6c0.4 1.8 1.1 5.2 1.7 6.8 2.9 7.8 18.2 64.9 22.3 65.3l-1.1 1.2c0.1 1.4 0.6 1.7 1.5 2.8 4.7 0.5 6.2-4.8 10.7-3.7l0.4 0.7c-1.3 1.4-2.3 1.8-4.1 2.7 3.3 5.2 3.3 3 3.8 9.6-0.5 1.2-0.4 1.2-1.4 2-1.6-1-1.1-0.9-3.5-0.5l-0.7 0.1c-1.3-0.8-9.2-15.1-10.6-17.4 2.1 8.1 4.7 14.1 10.6 20.2-3.4 2.7-12.9 11.2-15.5 13-0.7 0.7-2.3 2.3-2.9 3-3.8 3.4-8.8 6.6-11.8 9.8-3.9 6-12.3 5.2-13.1-3.2q0.8-0.9 1.6-1.8 0.8-0.9 1.6-1.8 0.8-1 1.6-1.9 0.8-0.9 1.6-1.8c-8.8 0.2-8.7 4.2-13.4 5.1-0.6-1.9 1-2.3 0.1-2.8-5.2 8.7-8.4 5.7-13.4 13.1-0.5 0.8-0.8 1.2-1.8 1.3-1.1 1.3-2.4 3-3.8 4-0.8-0.6-0.5-0.4-1.2-1.3l-1.1-0.2c15.4-18.7 12.9-20.7 34.4-33.7-12-30.6-24.1-69-34.8-100.4l-43.8-128q-3.7-10.4-7.4-20.9-3.6-10.5-7.3-21-3.6-10.4-7.2-20.9-3.7-10.5-7.2-21c-5.6-16.1-11.1-32.1-16-48.5-4-13.2 2.1-16.9 14-20.7 3.1-0.9 6.6-1.7 9.9-1.2 7.8 1.2 8 10.7 11.7 15.4 3.5-3.8 42.8-21.1 49.2-22.9 14.8-6.9 46.8-14.4 63-15.8 8.3-1.8 26.2-1.4 34.7-1 10.3 0.9 21.4 2 31.4 4.3 28.3 6.3 54.9 15.7 83.2 22.4 3.3 0.6 9.4 1.5 12.5 2.3z"/><path class="b" d="m155.2 187q-3.7-10.4-7.4-20.9-3.6-10.5-7.3-21-3.6-10.4-7.2-20.9-3.7-10.5-7.2-21c-5.6-16.1-11.1-32.1-16-48.5-4-13.2 2.1-16.9 14-20.7 3.1-0.9 6.6-1.7 9.9-1.2 7.8 1.2 8 10.7 11.7 15.4l0.2 0.4-0.5 0.8h-0.9c-2.8-2.8-4.6-12.1-7.4-13.2-0.8 0.6-2.9 4.3-4.7 5.9-4.5-2-8.9-0.9-11-3.3 1.2-2.3 5.6-3.4 8.2-4.3-2.6-0.5-9.2 1.8-11.6 3.1 3 8.1 11.5-0.1 15.4 12.8 1.6 5.1 7.5 25.1 10.4 27.3q-0.2-0.8-0.4-1.5-0.2-0.7-0.4-1.4-0.2-0.7-0.4-1.4-0.2-0.8-0.5-1.5c0.9 0.1 0.6 0.2 1.5 1.1 0.6 3.3 2.9 9 4.3 12.3 0.2-1-1.5-5.7-2-7-1.4-4-2-10.5-3-13.9-3.4-10.9-7.7-12.4-5-24.8 1 1.9 2.1 3.8 3 5.7-0.3 3.8-0.4 8.4 3 10.9 0.9-0.4 0.9-0.2 1.8 0l0.4 1.4 0.9-0.8c2.4 0.6 4.8 9.5 5.9 12.2 6.9 17.6 12.5 35.9 18.7 53.7 1.9 5.3 7.6 19.8 8.3 24.5 2.7 5.7 4.7 12.7 6.8 18.8l11.7 34 27.5 79.3 8.7 25.5c0.9 2.7 3 9.2 4.2 11.4-0.8 4.6-1.8 3.1-3.2 5.9-2.2 4.1 10.7 43.4 13 49.8l-1.5 0.9c0.7 0.9 3.9 4.4 3.9 5-0.2 3.2 6.9 18.3 6.5 20.4-0.7-0.9-1.4-2-2.3-2.6 3.9 8.9 6.9 13.5 6.4 23.5-1.1 1.2-5.1 5.4-6.3 5.7-2.6-4.4-4.2-14.6-7.5-18.6 0.5 1.8 6.9 20 7.6 21.4-0.7 0.7-2.3 2.3-2.9 3-3.8 3.4-8.8 6.6-11.8 9.8-3.9 6-12.3 5.2-13.1-3.2q0.8-0.9 1.6-1.8 0.8-0.9 1.6-1.8 0.8-1 1.6-1.9 0.8-0.9 1.6-1.8c-8.8 0.2-8.7 4.2-13.4 5.1-0.6-1.9 1-2.3 0.1-2.8-5.2 8.7-8.4 5.7-13.4 13.1-0.5 0.8-0.8 1.2-1.8 1.3-1.1 1.3-2.4 3-3.8 4-0.8-0.7-0.5-0.4-1.2-1.3l-1.1-0.2c15.4-18.7 12.9-20.7 34.4-33.7-12-30.6-24.1-69-34.8-100.4z"/><path class="c" d="m155.2 187q-3.7-10.4-7.4-20.9-3.6-10.5-7.3-21-3.6-10.4-7.2-20.9-3.7-10.5-7.2-21c-5.6-16.1-11.1-32.1-16-48.5-4-13.2 2.1-16.9 14-20.7 3.1-0.9 6.6-1.7 9.9-1.2 7.8 1.2 8 10.7 11.7 15.4l0.2 0.4-0.5 0.8h-0.9c-2.8-2.8-4.6-12.1-7.4-13.2-0.8 0.6-2.9 4.3-4.7 5.9-4.5-2-8.9-0.9-11-3.3 1.2-2.3 5.6-3.4 8.2-4.3-2.6-0.5-9.2 1.8-11.6 3.1-4.1 2.2-5.3 2.8-7.3 7.2 0.5 5.1 2.8 12.7 4.9 17.4 0.6-8-2.3-10.8-1.9-17.9 2.5-0.3 5.8-1.1 7.7 0 13.7 36.4 26.1 74.6 38.8 111.5l54 156.2c2 5.7 4.2 11.2 6.2 16.8l17.9 51.2c2.6 7.3 7.8 19.1 9.5 26.2 0.5 1.8 6.9 20 7.6 21.4-0.7 0.7-2.3 2.3-2.9 3-3.8 3.4-8.8 6.6-11.8 9.8-3.9 6-12.3 5.2-13.1-3.2q0.8-0.9 1.6-1.8 0.8-0.9 1.6-1.8 0.8-1 1.6-1.9 0.8-0.9 1.6-1.8c-8.8 0.2-8.7 4.2-13.4 5.1-0.6-1.9 1-2.3 0.1-2.8-5.2 8.7-8.4 5.7-13.4 13.1-0.5 0.8-0.8 1.2-1.8 1.3-1.1 1.3-2.4 3-3.8 4-0.8-0.7-0.5-0.4-1.2-1.3l-1.1-0.2c15.4-18.7 12.9-20.7 34.4-33.7-12-30.6-24.1-69-34.8-100.4z"/><path class="d" d="m155.2 187q-3.7-10.4-7.4-20.9-3.6-10.5-7.3-21-3.6-10.4-7.2-20.9-3.7-10.5-7.2-21c-5.6-16.1-11.1-32.1-16-48.5-4-13.2 2.1-16.9 14-20.7 3.1-0.9 6.6-1.7 9.9-1.2 7.8 1.2 8 10.7 11.7 15.4l0.2 0.4-0.5 0.8h-0.9c-2.8-2.8-4.6-12.1-7.4-13.2-0.8 0.6-2.9 4.3-4.7 5.9-4.5-2-8.9-0.9-11-3.3 1.2-2.3 5.6-3.4 8.2-4.3-2.6-0.5-9.2 1.8-11.6 3.1-4.1 2.2-5.3 2.8-7.3 7.2 0.5 5.1 2.8 12.7 4.9 17.4 15.7 47.7 33.8 96.5 50.5 144.1l56.9 167.9c3 9.4 19.9 58.2 19.1 63-1.3-0.6-0.9-0.4-2.1-1.4l-0.6 0.2c-0.2 1.9-0.1 2.9 1.3 4.4-3.9 6-12.3 5.2-13.1-3.2q0.8-0.9 1.6-1.8 0.8-0.9 1.6-1.8 0.8-1 1.6-1.9 0.8-0.9 1.6-1.8c-8.8 0.2-8.7 4.2-13.4 5.1-0.6-1.9 1-2.3 0.1-2.8-5.2 8.7-8.4 5.7-13.4 13.1-0.5 0.8-0.8 1.2-1.8 1.3-1.1 1.3-2.4 3-3.8 4-0.8-0.7-0.5-0.4-1.2-1.3l-1.1-0.2c15.4-18.7 12.9-20.7 34.4-33.7-12-30.6-24.1-69-34.8-100.4z"/><path class="e" d="m155.2 187q-3.7-10.4-7.4-20.9-3.6-10.5-7.3-21-3.6-10.4-7.2-20.9-3.7-10.5-7.2-21c-5.6-16.1-11.1-32.1-16-48.5-4-13.2 2.1-16.9 14-20.7 3.1-0.9 6.6-1.7 9.9-1.2 7.8 1.2 8 10.7 11.7 15.4l0.2 0.4-0.5 0.8h-0.9c-2.8-2.8-4.6-12.1-7.4-13.2-0.8 0.6-2.9 4.3-4.7 5.9-4.5-2-8.9-0.9-11-3.3 1.2-2.3 5.6-3.4 8.2-4.3-2.6-0.5-9.2 1.8-11.6 3.1-4.1 2.2-5.3 2.8-7.3 7.2-1.2 14.4 10.4 34.4 13.2 46.8 2.9 12.7 33.4 89.5 32.3 95.5z"/><path class="f" d="m205.5 446.6c2.1-5.1 13.2-15.7 17.7-20.1 1.1-1.1 9-3.6 10.2-5.8 0.4-0.8 0.5-0.8 1.3-1.2l0.7 1.1c0-1 0.1-1.7 0.2-2.7 1.6 3.2 3.1 10.3 4 14.1-0.9-1.7-2.1-4.5-3.6-5-1.3 1-1.3 1.4-2 2.9-8.8 0.2-8.7 4.2-13.4 5.1-0.6-1.9 1-2.3 0.1-2.8-5.2 8.7-8.4 5.7-13.4 13.1-0.5 0.8-0.8 1.2-1.8 1.3z"/><path class="g" d="m146.1 57.6l0.9-0.8c2.4 0.6 4.8 9.5 5.9 12.2 6.9 17.6 12.5 35.9 18.7 53.7 1.9 5.3 7.6 19.8 8.3 24.5-1-0.6-13.9-38-16-43.5l-9.1-24.8c-1.8-5.1-4.3-11.3-5.4-16.5-0.7 1.2-0.5 0.5-0.3 2.1l-0.5 0.3-0.8-0.6c-0.6-1.9-1-3.9-1-5.9z"/><path class="h" d="m257.9 9.5c8.3-1.8 26.2-1.4 34.7-1 10.3 0.9 21.4 2 31.4 4.3 28.3 6.3 54.9 15.7 83.2 22.4l-0.9 1.7-1.7 0.3 0.7 1c-3.3 0.9-8.1-3.2-10.5-3.3-14.1-0.6-58.9-19.6-70-11.1 2.1 2 16-2.3 21.1 1-5.3 1.3-11.9 0.2-15.9 0.9-4.1 3.8-8.7 6.3-9.3 12.2-0.2 2.2-0.4 3.8-1.6 5.6l1.3 3.5c-0.2 2.1-2.3 3.2-2.4 3.7-0.3 2.1-0.5 9.5 0.5 11l-0.3 0.7-1.2 0.3-0.4 1.3 1.2-0.5 0.4 0.5c0.1 3.5 1.7 1.9-0.2 5.3l0.2 0.2c0.5 4.7-1.4 5.8-4.8 8.9-2-0.9-3.4-1.6-5.7-1.9l-0.2-1.7c-1.3-0.7-1-0.4-2.8-0.2-0.4-0.5-2.6-6.1-3.4-7.8-3.2-7.2-8.1-12.8-12.4-18.9-6.8-9.6-10.3-18.4-22.5-22.3-6.5-2-10.5-1.8-17-1.8-6.5 2.3-17.7 1.5-25.4 4-16.3 5.4-32.6 7.9-48.2 15.9-3.1 1.6-8.8 2.2-12.2 3.2-6.9 2.1-9.8 9.1-18.8 8.2-2.2-2.5-2.4-6.9-3.9-9.8-0.9-1.9-2-3.9-3-5.7-2.7 12.4 1.6 13.9 5 24.8 1 3.4 1.6 9.9 3 13.9 0.5 1.3 2.2 6 2 7-1.4-3.3-3.7-9-4.3-12.3-0.9-0.9-0.6-1-1.5-1.1q0.3 0.7 0.5 1.5 0.2 0.7 0.4 1.4 0.2 0.7 0.4 1.4 0.2 0.7 0.4 1.5c-2.9-2.2-8.8-22.2-10.4-27.3-3.9-12.9-12.4-4.7-15.4-12.8 2.4-1.3 9-3.6 11.6-3.1-2.6 0.9-7 2-8.2 4.3 2.1 2.4 6.5 1.3 11 3.3 1.8-1.6 3.9-5.3 4.7-5.9 2.8 1.1 4.6 10.4 7.4 13.2h0.9l0.5-0.8-0.2-0.4c3.5-3.8 42.8-21.1 49.2-22.9 14.8-6.9 46.8-14.4 63-15.8z"/><path class="i" d="m194.9 25.3c1.3 0.4 2.5 0.1 3.8-0.1 0.1 0.5-5 2.4-5.8 2.7-12.4 4.9-24 10.9-35.7 17.2-2 1.1-10 3.5-10.9 4.9 0 1.5 0.2 1.4 1.2 2.7 2.4 0 9.8-5.9 12.9-6.8 10.2-2.9 20.5-7.6 30.4-10.8 23.6-7.6 49.9-16 74.9-13.5 2 0.2 4 0.2 5.9 1l-0.1 0.6c-2.3 1.5-16.2-1.1-22.3-0.1l0.2 0.7c-6.5 2.3-17.7 1.6-25.4 4-16.3 5.4-32.6 7.9-48.2 15.9-3.1 1.6-8.8 2.2-12.2 3.2-6.9 2.1-9.8 9.1-18.8 8.2-2.2-2.5-2.4-6.9-3.9-9.8-0.9-1.9-2-3.9-3-5.7-2.7 12.4 1.6 13.9 5 24.8 1 3.4 1.6 9.9 3 13.9 0.5 1.3 2.2 6 2 7-1.4-3.3-3.7-9-4.3-12.3-0.9-0.9-0.6-1-1.5-1.1q0.3 0.7 0.5 1.5 0.2 0.7 0.4 1.4 0.2 0.7 0.4 1.4 0.2 0.7 0.4 1.5c-2.9-2.2-8.8-22.2-10.4-27.3-3.9-12.9-12.4-4.7-15.4-12.8 2.4-1.3 9-3.6 11.6-3.1-2.6 0.9-7 2-8.2 4.3 2.1 2.4 6.5 1.3 11 3.3 1.8-1.6 3.9-5.3 4.7-5.9 2.8 1.1 4.6 10.4 7.4 13.2h0.9l0.5-0.8-0.2-0.4c3.5-3.8 42.8-21.1 49.2-22.9z"/><path class="j" d="m257.9 9.5c8.3-1.8 26.2-1.4 34.7-1l-1.1 1.3c1.8 1.3 24.4 2.9 28.4 4.2 1.8 0.6 7.5 1.6 10 2.4q1.3 0.3 2.6 0.7c-1.9 0.7-7.4-1.1-9.5-1.6-7.9-1.8-25.5-4.7-33.2-4.2 2.8 0.5 3.6 0.5 6.5 1.4-1 0.3-6.7-0.1-8-0.3-10.2-1-20.4 0.7-30.6 0.7l-0.6-0.4c1.1-0.3 7.8-1.2 9.1-1.2l0.5-0.3c-4-1-9.6 2.3-11.9 0.5 2.3-0.3 4-0.7 6.2-1.2-0.7-0.7-1.8-0.7-3.1-1z"/><path class="i" d="m419.7 37.5c29.1 3.3 48.9 1.8 76.9-7.7q4.4-1.5 8.8-3.2 4.4-1.7 8.7-3.5 4.3-1.9 8.6-3.9 4.2-2.1 8.4-4.3c8.6-4.5 26.1-15.5 34.9-14.9 8.9 5.4 4.8 29.1 3.7 38.3q-0.8 7.5-1.7 15-0.9 7.5-1.9 15-1 7.5-2 15-1 7.5-2.1 14.9c-2.5 17.3-8.1 41.9-3.1 58.8 2.8 9.7 13.9 21.5 20.4 29.4l2.4 2.6q4.5 5.2 9.1 10.4 4.6 5.2 9.1 10.4 4.5 5.2 9 10.4 4.5 5.3 9 10.6c4.1 4.9 12.8 15.2 16.1 20.6 1.6 2.1 3.3 4.7 4.1 7.1-1.9-0.3-2.3-0.7-3.9 0.7-4-9.1-6-6.2-12.5-11.8-3-3.1-5.4-7-8.2-10.4-3.1-3.7-2.7-3.6-7.2-3.9-1.5-1.6-2-2.5-3.9-2.7 1.9 2.5 5.8 4.1 5.9 7.4l-0.6 0.2c-4-4-11-11-13.7-15.7l0.2-0.6c1.2 0.9 2.4 1.5 3.7 2.2-3.6-1.8-1.3-5.9-2.1-7.2-1.2-1.9-6.8-8.1-8.3-9.9-1.4 0.5-1.5 0.6-2.9 0.6-1-1.2-6.5-7.4-6.6-8.2-1.5-5.9-3-6.2-6.8-10.7-5.6-6.6-14.3-16.6-16.4-25.1 1.2 0.8 2 1.6 3.5 1.8l-0.1-1c-2.7-3-5.4-18.7-5-23.2 3.8-39.5 13.3-78.6 13.9-118.3 0.1-4 2.4-13.4 0.3-15.9-2.4 2.1-0.9 6.3-1.4 9.1-0.3 1.9-0.9 3.7-1.2 5.6l-3 22.5-9.1 60.6c-2.5 17.8-7.2 38.7-0.1 56.1 0.4 1 0.8 1.6 1.2 2.8l-0.5 0.4-0.8-0.6c-7.6-18.8-3.7-34.9-1.1-54.2 2.5-18.3 5.4-36.5 7.7-54.8 0.4-3.1 1.3-8 0.9-10.9l-0.6 0.8-0.7-0.2c-2.2-3.2 2.4-11.6 1.5-19.1l-0.8-0.1c-0.1-3.8 1.2-7.6 0.9-11.7-4.8-2.7-26.1 11.9-30.8 15.4-4.8 3.7-25.5 9.4-28 11.5v1.6l-0.7 0.6-1.3-0.7c-2.8 2.4-8.4 4.2-11.9 4.3l-1.1 1.1c-2.6 0-9.1 2.9-12.1 3.5-0.6 0.1-2.5 2.7-3.3 2.9-0.8 0.1-6.1 0.3-6.5 0.8-4.5 6-7.6 8.3-15.1 5.6-1.2-0.4-1.4-1.6-1.7-2.8l-0.7-0.2-0.4 0.8c-3.2-0.2-3.6-0.8-4.9-3.2l-0.9-0.1c-0.6 0.8-0.3 0.4-1.2 1.1-2.6-1.2-3.5-3.8-5.9-4.7-4.7-1.7-9.9-3.9-14.5-5.7-1.9-0.7-7.2-0.6-9.6-2.3-0.7-0.5-2.7 0.3-3.9 0.6l-0.5-0.8 0.9-0.5c-0.8-0.4-1-0.1-2.2 0.1-1.7-1.8-3.7-3.2-6-3.9-4.9 1.3-8.4-3.2-13.3-2.6-3.6 0.4-3.7-1-6.4-1.6-9.4-1.7-18-6.5-27.5-7.3-2.1-0.2-2.2-0.1-4.2-0.7l-0.7-1.1c-5.1-3.3-19 1-21.1-1 11.1-8.5 55.9 10.5 70 11.1 2.4 0.1 7.2 4.2 10.5 3.3l-0.7-1 1.7-0.3 0.9-1.7c3.3 0.6 9.4 1.5 12.5 2.3z"/><path class="k" d="m419.7 37.5c29.1 3.3 48.9 1.8 76.9-7.7q4.4-1.5 8.8-3.2 4.4-1.7 8.7-3.5 4.3-1.9 8.6-3.9 4.2-2.1 8.4-4.3c8.6-4.5 26.1-15.5 34.9-14.9-1.4 11.2-5.3 6.6-13.5 10.9-9.9 5.2-18.9 11.6-28.7 16.9-6.4 3.4-17.7 6.8-23.5 10.3-3.2 1.4-6.2 2.8-9.6 3.7-7 1.6-27.7 8.5-32.4 13.5v0.5l1.1-0.5c0.5 0.2 0.8 0.4 1.2 0.6-0.4 2.3-2.6 3.9-4.9 3.7-1.2-1-1.2-1.6-2.1-2.7-3-3.8-8.9-5.3-13.1-7.7-7.4-4.1-14.1-7-22.5-8.2 2.7-0.3 12 1.5 15.9 0.8 1.7-0.3 7.6 0.1 9.7-0.3 3-0.6 1.5-1.1 4.8-0.8-6.3 0.1-22.5-0.9-28.5-2.2z"/><path class="j" d="m488.4 36.8v0.3c-0.5 1-0.5 0.7-0.6 1.8l1.7-0.3-0.2 0.5c-2.9 1.1-5.1 1.5-8.1 2.2 0.2-1.1 0-0.6 0.7-1.6-2.5 0.1-5.2 0.5-7.2-0.7 5.4 0.1 9.1-2.4 13.7-2.2z"/><path class="l" d="m579.3 186.4l2.4 2.6q4.5 5.2 9.1 10.4 4.6 5.2 9.1 10.4 4.5 5.2 9 10.4 4.5 5.3 9 10.6c4.1 4.9 12.8 15.2 16.1 20.6-2.4 0.5-3.9-3.7-7.5-4.2-0.5 0.7-0.6 0.9-1 1.6-2.7-4.3-6-8.2-9.1-12.2-3.7-4-7.2-10.6-10.9-14.3-8.5-8.4-15.9-19-24.1-27.4-1.3-1.2-1.6-1.7-2.7-3.1 0.8-1.3 0.6-3.7 0.6-5.4z"/><path class="j" d="m625.5 248.8v0.3c-2.9-2.9-6.8-7.7-9.5-10.9l-22-25.7-20.2-23.3c-3.1-3.5-9.5-10.4-11.4-14.2 0.6-0.2 0.3-0.1 1-0.5l0.5-0.3c3.1 2.9 10.8 13.2 14.8 17.6 1.1 1.4 1.4 1.9 2.7 3.1 8.2 8.4 15.6 19 24 27.4 3.8 3.7 7.3 10.3 11 14.3 3.1 4 6.4 7.9 9.1 12.2z"/><path class="g" d="m238.8 316.2c1.1 1.6 1.1 1.8 1.3 3.6 2.2 0.8 3.9-1.9 5.7-3.2 1.8-1.2 4.5-3.1 6.8-3.1 2.5 0 2.4-0.8 3.3-2.4 7.5-3 18.3-9 26.1-12.6l1.9 0.3c1.3-0.7 1.3-0.9 2.4-2l0.7 0.2-0.8 1.2c1.4 0.3 3.6-0.2 4.8-1 3.4-5.5 14.7-7.2 20.9-7.7 2.6-0.2 5.1-0.2 7.8-0.7 3.4-0.7 11.1-4.7 14.2-3.8l-1.4 1.2h2.1c4.3-2.5 11.9-2.3 17-2.4l-0.2-0.1c2.7-0.5 4.5-1.3 6.6 0.4 1.8 0.3 1.1 0.6 2.4-0.3-0.9-1-0.9-0.9-2-1.5 7.4 1.6 3.9 0.8 9.9 0l0.4 1.3 0.8 0.3 0.9-0.2c7.1-1.7 7.5 1.6 13.1 1.1 1.5-1.3 1.7-1.8 3.6-1.3-0.9 0.6-1.6 1.1-2.4 1.7 2.5 0.8 5.1-0.3 7.4-0.1 5.1 0.5 7.5 3.5 12.6 1.2 2.5 0.5 2.2 1.8 4.9 3.1 1.2-0.1 4.2 0.1 4.8-0.4l-0.2-1.1c2.1 1.8 3.5 3.6 6.2 3.9 1.6-0.7 0.9-0.2 2-1.9 2.1 1.2 1.1 2.2 3.2 2.4l0.6-0.9 0.6 0.1c2.7 3.1 3.6 1.7 7.6 2.7 6.2 1.4 8.1-2.3 12.9 3.6 0-0.1 13.3 4.4 14.3 4.7 1.8 0.5 10.2-1.5 11.4-0.7l-1.3 0.7 0.8 0.7-0.5 0.6c-3.1 0.7-1.8-0.7-4.4-0.3l0.2 0.6c1.8 0.7 3.8 0 6.5 0.3l0.5 0.8c1 0.6 1.7 0.5 2.9 0.5-1-0.8-0.8-0.3-1-1.3 1.4-0.4 2.3 0.2 3.4 1v0.5c-0.9 0.1-0.4 0-1.4 0.3 3 0.7 1.4-1.7 5.3 0.1 3.1-1.4 4.9 1.2 7.2 1.4 11.8 1.3 24.6 1.7 36.2-1.4 0.7-0.1 3.5 1.1 4.5 1.3 1.9 0.4 1.4-1.9 3.5-1.8 4.2-0.4 9.2-0.2 13.2-1.3 1.6-3.1 10.6-2.9 15.9-5.2 10.8-4.6 22.2-8 32.9-13.1l-0.5 0.1q4.2-1.8 8.4-3.7 4.1-1.9 8.1-4 4.1-2.1 8-4.4 3.9-2.2 7.7-4.7c1.2-0.8 3.8-2.1 4.7-3 1.2-1.2 3.5-5.6 2-7.1-2 0.2-3.4 2.7-6.6 3.6-3.4-1.1-12.3-17.5-17.4-21-0.7-0.5-1-0.7-1.4-1.4l0.4-0.5 2 0.4c1.5 1.8 2 2.3 3.8 3.9 1-0.8 0.5-0.6 1.7-0.6l0.9 1.1c-0.4 0.5-0.7 0.7-1.2 1 1.7 3.8 6.4 7.9 8.3 11.8 0.7 1.4 1.7 3.4 3.3 3.7 1.6-0.8 2.9-1.2 4.6-2.2 1.6-1.4 2-0.9 3.9-0.7 2.7 10.8-10.2 16.9-18 21.6-24.2 14.4-50.2 26.1-77.8 31.5-69.7 15.6-125.6-25-193.3-20.8q-10 0.7-19.8 2.2-9.9 1.6-19.6 4-9.7 2.3-19.1 5.6-9.5 3.2-18.6 7.3c-5.1 2.2-22.4 11.5-25.9 12.3l-4.7 2.6c0.4 1.8 1.1 5.2 1.7 6.8 2.9 7.8 18.2 64.9 22.3 65.3l-1.1 1.2c0.1 1.4 0.6 1.7 1.5 2.8 4.7 0.5 6.2-4.8 10.7-3.7l0.4 0.7c-1.3 1.4-2.3 1.8-4.1 2.7 3.3 5.2 3.2 3 3.8 9.6-0.5 1.2-0.4 1.2-1.4 2-1.6-1-1.1-0.9-3.5-0.5l-0.7 0.1c-1.3-0.8-9.2-15.1-10.6-17.4 2.1 8.1 4.7 14.1 10.6 20.2-3.4 2.7-12.9 11.2-15.5 13-0.7-1.4-7.1-19.6-7.6-21.4 3.3 4 4.9 14.2 7.5 18.6 1.2-0.3 5.2-4.5 6.3-5.7 0.5-10-2.5-14.6-6.4-23.5 0.9 0.6 1.6 1.7 2.3 2.6 0.4-2.1-6.7-17.2-6.5-20.4 0-0.6-3.2-4.1-3.9-5l1.5-0.9c-2.3-6.4-15.2-45.7-13-49.8 1.4-2.8 2.4-1.3 3.2-5.9z"/><path class="m" d="m260.3 394.4c-3.3-11.9-22.9-63.4-22.7-70.2l0.6-0.6c4.9 0.8 3.9-1.5 7.8-1.4l-4.7 2.6c0.4 1.8 1.1 5.2 1.7 6.8 2.9 7.8 18.2 64.9 22.3 65.3l-1.1 1.2c0.1 1.4 0.6 1.7 1.5 2.8 4.7 0.5 6.2-4.8 10.7-3.7l0.4 0.7c-1.3 1.4-2.3 1.8-4.1 2.7 3.3 5.2 3.2 3 3.8 9.6-0.5 1.2-0.4 1.2-1.4 2-1.6-1-1.1-0.9-3.5-0.5l-0.7 0.1c-1.3-0.8-9.2-15.1-10.6-17.4z"/><path class="n" d="m336 69c7.4-1.2 41.8-8.1 46.6-6.8 4.5 4.8 7.2 31.7 8.4 39.5l10.7 72.6c0.4 3.1-0.1 3.5-0.8 6.4-0.4 1.7-3.3 8.7-4.5 10.3l-1.7-0.4c-0.3-1.4 0-2.4-0.6-3.8-2.6 0.4-9-0.1-9.5 0.2l0.8 1c-2.5 1.3-6.8-0.1-9 1.8-3.1 2.8-7.4 0.1-11.8 0.1l0.1 0.6 2.2 0.2-0.1 0.5-2.2 0.1 0.2 0.9c2.5 2.4 4.6 2.9 7.8 3.7l0.7 0.2-0.1 0.5c-2.5 0.2-4.9-1.7-7.1-1.2l0.8 0.9-0.4 0.5-0.9-0.3c-0.5-2.3-3-3.5-5-4.8l-0.2 1.6h-0.6c-0.9-2.1-0.3-3.7 0-6.2-3.3-7.3-5.3-16.2-7.9-23.7-1.1-3.4-2.6-13.3-4-15l-0.5 2c-0.6-4.7-0.9-8.2-3-12.4l-0.5 0.7-0.6-0.3-0.2-0.9c1.6-4.2-1.1-8.4-3-12.2 0.3-2.3 0.2-2.7-0.4-4.9 0 1.9-0.6 4.9-1.9 6.2-1.5-1.9-1.5-6.1-2.3-9-2.8-9.5-6.5-20.5-8-30.2-0.3-1.6 1-9.2 1.3-11.5l0.3 2.3 0.2-0.1 0.2-1.5c0.1-5 2.5-5.7 6.5-7.6z"/><path class="e" d="m329.5 76.6c1.6-1.6 1.1-1.7 2.9-1.8 3.1 5.5 6.8 21.8 9.1 29 1.6 4.9 7.9 22.6 8.5 26.4 1 4 2.3 9.6 3.6 13.4 2.1 6.4 4.4 13 6.6 19.4 1.9 5.6 3.2 16.8 7.6 20.4 6.2 1.3 15.1-1.3 21.3-2.7 5.1-1.1 12-0.2 12.6-6.4 0.4 3.1-0.1 3.5-0.8 6.4-0.4 1.7-3.3 8.7-4.5 10.3l-1.7-0.4c-0.3-1.4 0-2.4-0.6-3.8-2.6 0.4-9-0.1-9.5 0.2l0.8 1c-2.5 1.3-6.8-0.1-9 1.8-3.1 2.8-7.4 0.1-11.8 0.1l0.1 0.6 2.2 0.2-0.1 0.5-2.2 0.1 0.2 0.9c2.5 2.4 4.6 2.9 7.8 3.7l0.7 0.2-0.1 0.5c-2.5 0.2-4.9-1.7-7.1-1.2l0.8 0.9-0.4 0.5-0.9-0.3c-0.5-2.3-3-3.5-5-4.8l-0.2 1.6h-0.6c-0.9-2.1-0.3-3.7 0-6.2-3.3-7.3-5.3-16.2-7.9-23.7-1.1-3.4-2.6-13.3-4-15l-0.5 2c-0.6-4.7-0.9-8.2-3-12.4l-0.5 0.7-0.6-0.3-0.2-0.9c1.6-4.2-1.1-8.4-3-12.2 0.3-2.3 0.2-2.7-0.4-4.9 0 1.9-0.6 4.9-1.9 6.2-1.5-1.9-1.5-6.1-2.3-9-2.8-9.5-6.5-20.5-8-30.2-0.3-1.6 1-9.2 1.3-11.5l0.3 2.3 0.2-0.1z"/><path class="c" d="m328.8 75.9l0.3 2.3 0.2-0.1c0.4 1.8 2 8 2.6 9.4 5.5 13.4 25.5 94.9 32.1 100.6 6 1.6 30.2-3.5 36.4-7.2l0.5-0.2c-0.4 1.7-3.3 8.7-4.5 10.3l-1.7-0.4c-0.3-1.4 0-2.4-0.6-3.8-2.6 0.4-9-0.1-9.5 0.2l0.8 1c-2.5 1.3-6.8-0.1-9 1.8-3.1 2.8-7.4 0.1-11.8 0.1l0.1 0.6 2.2 0.2-0.1 0.5-2.2 0.1 0.2 0.9c2.5 2.4 4.6 2.9 7.8 3.7l0.7 0.2-0.1 0.5c-2.5 0.2-4.9-1.7-7.1-1.2l0.8 0.9-0.4 0.5-0.9-0.3c-0.5-2.3-3-3.5-5-4.8l-0.2 1.6h-0.6c-0.9-2.1-0.3-3.7 0-6.2-3.3-7.3-5.3-16.2-7.9-23.7-1.1-3.4-2.6-13.3-4-15l-0.5 2c-0.6-4.7-0.9-8.2-3-12.4l-0.5 0.7-0.6-0.3-0.2-0.9c1.6-4.2-1.1-8.4-3-12.2 0.3-2.3 0.2-2.7-0.4-4.9 0 1.9-0.6 4.9-1.9 6.2-1.5-1.9-1.5-6.1-2.3-9-2.8-9.5-6.5-20.5-8-30.2-0.3-1.6 1-9.2 1.3-11.5z"/><path class="g" d="m328.8 75.9l0.3 2.3c0.8 9.5 11 38.5 10.6 42.2 0 1.9-0.6 4.9-1.9 6.2-1.5-1.9-1.5-6.1-2.3-9-2.8-9.5-6.5-20.5-8-30.2-0.3-1.6 1-9.2 1.3-11.5z"/><path class="n" d="m368.2 206.5c3.5-7.1 5.8-7.8 13.2-10.7 7.1-2.7 15.6-2.7 22.6 0.7q2.7 1.4 5.1 3.2 2.3 1.8 4.3 4.1 2 2.3 3.4 4.9 1.5 2.6 2.4 5.5c1.6 4.9 1.8 10.2 1.5 15.3-0.6 8.3-7.5 13.2-9.5 20.8-0.2 0.6-0.5 0.9-0.9 1.4l-0.6-0.2c0-1.2 0-2.4-0.1-3.6-2.5 0.5-1.9 2.1-5.9 2.6-4 0.5-13.3 4.5-17.3 2.3 1.6-0.6 4.4-0.4 6.3-0.3v-0.3c-2.8 0.2-4.3 0.6-7.5-0.4-7.5-2.2-18.8-2.3-20.3-12.4-0.4-2.9-1.9-7.6-1.4-9.8 0.2-1-0.1-4-0.2-5.1-0.8-9.2 0.9-10.6 4.9-18z"/><path class="c" d="m368.2 206.5c3.5-7.1 5.8-7.8 13.2-10.7 7.1-2.7 15.6-2.7 22.6 0.7q2.7 1.4 5.1 3.2 2.3 1.8 4.3 4.1 2 2.3 3.4 4.9 1.5 2.6 2.4 5.5c1.6 4.9 1.8 10.2 1.5 15.3-0.6 8.3-7.5 13.2-9.5 20.8-0.2 0.6-0.5 0.9-0.9 1.4l-0.6-0.2c0-1.2 0-2.4-0.1-3.6-2.5 0.5-1.9 2.1-5.9 2.6-4 0.5-13.3 4.5-17.3 2.3 1.6-0.6 4.4-0.4 6.3-0.3v-0.3c-2.8 0.2-4.3 0.6-7.5-0.4-7.5-2.2-18.8-2.3-20.3-12.4-0.4-2.9-1.9-7.6-1.4-9.8l3 7c0.4-1.3 0.4-2.2 1.4-3 1.7 0.4 3.5 2.7 4.8 4.1 8.8 10.4 18.7 12 31.2 7.8 3-1 6.3-3.3 9-4.4 3.5-2.9 5.5-9.4 6.2-13.9 0.2-6.6-1-16-6.2-20.8-8-13-27.7-13.1-39-4.6-2 1.6-3.8 3-5.7 4.7z"/><path class="l" d="m366.5 236.6c0.4-1.3 0.4-2.2 1.4-3 1.7 0.4 3.5 2.7 4.8 4.1 8.8 10.4 18.7 12 31.2 7.8 3-1 6.3-3.3 9-4.4-1.6 2-4.3 4.1-6.6 5.3-14.8 8.2-31.2 5.5-39.8-9.8z"/><path class="o" d="m368.2 206.5c1.9-1.7 3.7-3.1 5.7-4.7 11.3-8.5 31-8.4 39 4.6-1.7-0.7-3.8-2.6-5.4-3.7-6.9-5-11.5-3.7-18.8-3.6-10.5 0.2-8.9 0.9-16.7 6.5-2.6 1-3.7 3.9-4.6 6.7-1.6 5.4-0.8 13.3 2.2 18.1 9.3 14.8 23.4 20.8 39.3 11.3 6.5-3.9 7.4-11.9 10.2-14.5-0.7 4.5-2.7 11-6.2 13.9-2.7 1.1-6 3.4-9 4.4-12.5 4.2-22.4 2.6-31.2-7.8-1.3-1.4-3.1-3.7-4.8-4.1-1 0.8-1.1 1.7-1.4 3l-3-7c0.2-1-0.1-4-0.2-5.1-0.8-9.2 0.9-10.6 4.9-18z"/><path class="i" d="m328.8 75.9v-0.4c-2.5 3.2-3.9 8.3-4.6 9-0.6-1.9 1.6-6.1 2.6-8.2-0.9-1.7-2.1-2.9-0.7-4.5l1.6 0.9c4-1.7 3.1-5 8.3-3.7-4 1.9-6.4 2.6-6.5 7.6l-0.2 1.5-0.2 0.1z"/><path class="p" d="m265.3 396.9c5.2-3.6 26.2-10.7 33.6-13.6 15.2-5.8 33.8-21 49.6-19.2 10.2 1.1 15.1 7.5 21.1 15 5.7 7.1 11.2 14.4 17 21.4 3.1 4 25 30 26.2 33.4 1.5 1.9 5 6.6 5.9 8.6 7.8 9.7 10.4 14.5 20.5 22.5 15.5 12.4 8.3-3.8 20.6-5.2 0.5-0.1 9.4 1.6 10.3 2.2 8.2 0.9 39.3 12.2 47.8 15.4 2.7 2.5 8.7 10.3 10.4 13.6 1.1 1.2 4.7 6.9 5.9 8.7 4.7 6.9 8.8 12.9 14.3 19.2 12.8 12.6 24.7 22.6 32.7 39.2 1.4 2.7 3.5 6.1 4.4 9 1.1 2.5 4.2 8.6 5 10.9 2.3 3.8 4.2 6.8 6.9 10.4l0.4 0.4c4.2 4.8 10.5 9.8 14.3 14.3 9.1 10.7 17.8 27.9 23.5 41 0.5 3 1.1 8.3-0.8 10.8-2.2 2.8-6.1 5.4-9.6 6l-1.1 0.6c-3.5 0.7-24.8 0.3-29.3 0.3h-65-141.2c-22.4 0-50.1 0.7-72-0.3-7.2 0.4-15.8 0.1-23.2 0.1l-194.8 0.2h-56c-7 0.1-23 0.5-29.2-0.5-5.4-0.7-11.5-2.8-12.4-8.9q0-0.3-0.1-0.6 0-0.3 0-0.7-0.1-0.3-0.1-0.6 0-0.3 0-0.6c-0.4-6.4 5.1-14.3 8.3-19.8 2.4-4.2 5.3-10.6 8.4-14q0.4-0.5 0.9-0.9 0.4-0.4 0.9-0.8 0.4-0.4 0.9-0.8 0.4-0.4 0.9-0.8c7.9-7.6 34.2-30.2 37.5-37.9 0.5-1.5 1.7-3.9 2.4-5.4l2.1-5.2 2.8-6.2c1.6-2 4.1-4.7 6-6.2 3-3.7 7-7.5 10.1-11.3 6.4-7.7 13.1-15.6 19.2-23.6 0.9-1.9 3.9-6.2 5.2-8.3 7-11.4 13.1-19.7 23-28.9 5.5-4.8 17.3-4.3 24.1-3.5 6.2 2.3 9.3 4.6 14.5 8.7 1.3-2.2 11.5-12.7 13.7-15.1 1-1.8 15.2-17.9 17.6-20.7l1.1 0.1c0.7 0.9 0.4 0.7 1.2 1.3 1.4-1 2.7-2.7 3.8-4 1-0.1 1.3-0.5 1.8-1.3 5-7.4 8.2-4.4 13.4-13.1 0.9 0.5-0.7 0.9-0.1 2.8 4.7-0.9 4.6-4.9 13.4-5.1q-0.8 0.9-1.6 1.8-0.8 0.9-1.6 1.9-0.8 0.9-1.6 1.8-0.8 0.9-1.6 1.8c0.8 8.4 9.2 9.2 13.1 3.2 3-3.2 8-6.4 11.8-9.8 0.6-0.7 2.2-2.3 2.9-3 2.6-1.8 12.1-10.3 15.5-13-5.9-6.1-8.5-12.1-10.6-20.2 1.4 2.3 9.3 16.6 10.6 17.4l0.7-0.1c2.4-0.4 1.9-0.5 3.5 0.5 1-0.8 0.9-0.8 1.4-2-0.6-6.6-0.5-4.4-3.8-9.6 1.8-0.9 2.8-1.3 4.1-2.7l-0.4-0.7c-4.5-1.1-6 4.2-10.7 3.7-0.9-1.1-1.4-1.4-1.5-2.8z"/><path class="q" d="m205.5 446.6c1-0.1 1.3-0.5 1.8-1.3 5-7.4 8.2-4.4 13.4-13.1 0.9 0.5-0.7 0.9-0.1 2.8 4.7-0.9 4.6-4.9 13.4-5.1q-0.8 0.9-1.6 1.8-0.8 0.9-1.6 1.9-0.8 0.9-1.6 1.8-0.8 0.9-1.6 1.8c0.8 8.4 9.2 9.2 13.1 3.2 3-3.2 8-6.4 11.8-9.8l0.4 0.1c1.7-0.1 9.3 0.2 10.7 0.7 3.4 3.6-8.2 14.4-10.2 19.1 3-2.4 7.6-9.2 10.4-10.2 1.2 2.8-1.5 2.6 1.8 5.1 0.6 1.9 0.1 3.3-1.2 4.8l-0.1-0.7c-0.3-1.8-0.4-2.9-1.5-4.3-3.3-0.6-1.5 4.6-5.7 6.6 1 1.2 1.1 1.7 2.4 2.1 0.5-1.4 0.8-1.8 1.7-3l1.7-2.6 0.6 0.1c-0.7 4-3 1.1-0.8 5.6-0.8 10.1-19 22.7-14.9 31.3 1.2 0.9 1.3 0.7 2.8 0.9l1.3 1.2c7.3-1.5 8.5-13.7 11.8-17.3h0.6c1.3 3.2-1.8 7.2-1.1 8.6 3.5-1.1 2.1-8.5 4.1-10.6 1.3 0.5 0.8 0.3 1.9 1.6h0.8l-0.3-1.2c2.4-1 3.7-4.1 5.8-5.6 1.3-1 3.6-1.5 5.2-2.1 5.4-2.5 10.5-2.8 16.5-2.5l0.1 0.7c-1.5 0.3-1.2 0.2-2.4 0.1-3.4-0.3-9 2.2-12.2 3.6-7.6 3.3-6.5 4.1-12.3 8.9l-0.8-1-0.7 0.1c-2.5 3.7-2.1 8.3-5.5 10.8-1.4 1-3.2 3.2-4 4.7 1.5 0.2 1.2 0.1 2.7-0.1-0.6 1.4-3.4 4.3-4.6 5.6l0.3 0.5c0.9-0.4 1.1-0.7 1.7-0.5l-0.4 2.2c-1.4 1.5-1.4 1.7-2 3.7 0.7 3.6 5 4.1 6.6 7.3-0.6 1.3-0.7 1.1-0.8 2.5 4.8 1.6 11.4-11.2 21.3-3.6 1.1 0.1 1.5 0.1 2.6 0.5 0.1 1.2 0 0.7 0.3 1.5-3.3 0.2-5.1-1.9-7.9-1.7-6.2 0.4-13.1 4.5-19.1 6.8 1.7 1.2 2.3 1.8 3.6 3.5 5.8 2.1 12.6-5.1 15.2 0.3 0.8 1.5 0.2 4.5 1.6 6.4 1.9-0.7 2.3-5.2 4.8-6.8l0.6 0.5c-0.4 2.2-0.7 1.8 0.1 3.3 0.7 0.1 1.6 0.2 2.3 0.2 2.3-2 3.2-2.7 5.7-4.3-1.6 2-7.5 7-7.9 8l0.7 1.3-0.8-0.6c1 0.6 1.3 0.7 2.5 0.9 0 2 0 0.9-0.7 2.6-3 7.7-2.4 20.4-2.6 28.7-0.1 4 1.3 11.1 0.4 15.1-0.8 1.9-1.9 4.5-1.4 6.5 3.3 3.4 9.6-3.1 12.5-4.9-0.5 1.3-1.1 1.8-0.8 2.7l0.7 0.3-0.2 0.6c1.1 0.3 1.4 0.5 2.3 1.1 0.8 2.3 0.6 1.8-0.8 3.9-4 6-6.6 14.1-6.2 21.3 0.2 1.5 5.1 8 5.5 9.2 1.7 5-1.5 7.7 3.6 11.5l1.2 8.1c-1.7 2.1-7.1 2.2-8.6 4.2-0.7 0.8-1.7 7-1.6 8.2 8.6 2.3 17.7 6.7 25.8 7.1 0.4-3.1 0.6-6.4 1.6-9.4 0-0.5 0-0.2 0.5-1 7.5 1.2 5.9-2.5 8.8-8.9 1.5-0.6 0.7-0.2 1.8-1.9 1.8-1.2 2.7-0.9 4.8-0.8v-0.4l0.4-0.6c2.5 0.2 11.3 3 13.2 4.4-0.7 1-0.3 0.5-1.7 1 0.8 1.2 1.5 1.4 2.8 2.1 2.1 6.9 6.6 10.6 8.1 17.1 0.2 0.1 2.6 3.9 4.4 5.4l-0.3-0.3c-2.1 1.2-9.7-1.8-10.9 0.6q2.2 0.9 4.5 1.8c-1.8 2.2-40.2-0.5-43.2 1.9h-0.5l0.9 0.3 0.1-0.4 0.6 0.5 3.2 0.3c-7.3 0.3-15.8 0.1-23.2 0.1l-194.8 0.2h-56c-7 0.1-23 0.5-29.2-0.5-5.4-0.7-11.5-2.8-12.4-8.9q0-0.3-0.1-0.6 0-0.3 0-0.7-0.1-0.3-0.1-0.6 0-0.3 0-0.6c-0.4-6.5 5.1-14.3 8.3-19.8 2.4-4.2 5.3-10.6 8.4-14q1.8-1.7 3.6-3.3c7.9-7.6 34.2-30.2 37.5-37.9 0.5-1.5 1.7-3.9 2.4-5.4l2.1-5.2 2.8-6.2c1.6-2 4.1-4.7 6-6.2 3-3.7 7-7.5 10.1-11.3 6.4-7.7 13.1-15.6 19.2-23.6 0.9-1.9 3.9-6.2 5.2-8.3 7-11.4 13.1-19.7 23-28.9 5.5-4.9 17.3-4.3 24.1-3.5 6.2 2.3 9.3 4.5 14.5 8.7 1.3-2.2 11.5-12.8 13.7-15.1 1-1.8 15.2-17.9 17.6-20.8l1.1 0.2c0.7 0.9 0.4 0.6 1.2 1.3 1.4-1 2.7-2.7 3.8-4z"/><path class="r" d="m205.5 446.6c1-0.1 1.3-0.5 1.8-1.3 5-7.4 8.2-4.4 13.4-13.1 0.9 0.5-0.7 0.9-0.1 2.8 4.7-0.9 4.6-4.9 13.4-5.1q-0.8 0.9-1.6 1.8-0.8 0.9-1.6 1.9-0.8 0.9-1.6 1.8-0.8 0.9-1.6 1.8c0.8 8.4 9.2 9.2 13.1 3.2 3-3.2 8-6.4 11.8-9.8l0.4 0.1c1.7-0.1 9.3 0.2 10.7 0.7 3.4 3.6-8.2 14.4-10.2 19.1 3-2.4 7.6-9.2 10.4-10.2 1.2 2.8-1.5 2.6 1.8 5.1 0.6 1.9 0.1 3.3-1.2 4.8l-0.1-0.7c-0.3-1.8-0.4-2.9-1.5-4.3-3.3-0.6-1.5 4.6-5.7 6.6 1 1.2 1.1 1.7 2.4 2.1 0.5-1.4 0.8-1.8 1.7-3l1.7-2.6 0.6 0.1c-0.7 4-3 1.1-0.8 5.6-0.8 10.1-19 22.7-14.9 31.3 1.2 0.9 1.3 0.7 2.8 0.9l1.3 1.2c7.3-1.5 8.5-13.7 11.8-17.3h0.6c1.3 3.2-1.8 7.2-1.1 8.6 3.5-1.1 2.1-8.5 4.1-10.6 1.3 0.5 0.8 0.3 1.9 1.6h0.8l-0.3-1.2c2.4-1 3.7-4.1 5.8-5.6 1.3-1 3.6-1.5 5.2-2.1 5.4-2.5 10.5-2.8 16.5-2.5l0.1 0.7c-1.5 0.3-1.2 0.2-2.4 0.1-3.4-0.3-9 2.2-12.2 3.6-7.6 3.3-6.5 4.1-12.3 8.9l-0.8-1-0.7 0.1c-2.5 3.7-2.1 8.3-5.5 10.8-1.4 1-3.2 3.2-4 4.7 1.5 0.2 1.2 0.1 2.7-0.1-0.6 1.4-3.4 4.3-4.6 5.6l0.3 0.5c0.9-0.4 1.1-0.7 1.7-0.5l-0.4 2.2c-1.4 1.5-1.4 1.7-2 3.7 0.7 3.6 5 4.1 6.6 7.3-0.6 1.3-0.7 1.1-0.8 2.5 4.8 1.6 11.4-11.2 21.3-3.6 1.1 0.1 1.5 0.1 2.6 0.5 0.1 1.2 0 0.7 0.3 1.5-3.3 0.2-5.1-1.9-7.9-1.7-6.2 0.4-13.1 4.5-19.1 6.8 0.4 2.8 2.3 4.1 2.7 7.1-1.3 2-3.9 0.5-4 2 1.5 0.5 3.2-0.4 4.8-1l0.1 0.5-0.6 0.3c-2 1.5-2.4 1.8-3.9 3.8v0.1l0.9-0.9c1.9 0.2 2.4-0.2 4.1-0.9 1.3 0.3 0.9 0.1 2 0.9-2.3 1.3-7.8 1.2-7.7 3.8 0.3 7.6-3.7 6.4-8.8 9.4-1.5 1.1-5.3 7.5-6.6 7.9-11.9 4.2-24.1 8.1-36.2 11.3-0.5 0.2-7.6 0.9-7.8 0.8-4.1-0.7-15 3.7-17.2 3.7-2.9-1.8-1-4.4-0.8-7.5l-0.7 0.6c-6.6 6.1-8.9 9.8-13 18-1.2 2.5-3 6.1-4.6 8.3-0.3-5 2.8-5.8 2.5-10.1-0.2-2-3.2-2.4-4.9-1.9l-0.8-1.1c-3.8 6.3-11.5 26.5-13.8 34l-0.3-0.3c0.2-2.6 0.2-4.7 0.8-7.2 1.1-4.5 2-8.2 4.1-12.4 1.7-2.2 3.6-7.1 4.8-9.8 5-11.5 10.5-22.1 13-34.4 0.9-3.9 0.6-11.8 0.7-16.1-2.1-2.9-2.2-3.4-2.7-6.9-0.4-3.5-0.5-10.6-5.1-10.8-2.1 1.4-2.1 2.5-3.4 5 0.4-1.5 1.7-6 2.6-7.2 0.3-0.4 1.3 0.2 2.6-1.2 0.1-1.7-0.3-2.3-0.8-3.8 3.5-1 4.3-1.2 7.6-2.9 0.6-0.5 0.7-0.4 1.1-1 3.2-4.4 7.2-6.5 12-8.9l-1.4-0.7c-4.2 2.4-9 4.9-13 7.7-0.8-1.2-1.3-1.8-1.9-3 0.5-0.3 1.4-0.7 1.6-1.1 1.3-2.2 11.5-12.8 13.7-15.1 1-1.8 15.2-17.9 17.6-20.8l1.1 0.2c0.7 0.9 0.4 0.6 1.2 1.3 1.4-1 2.7-2.7 3.8-4z"/><path class="s" d="m205.5 446.6c1-0.1 1.3-0.5 1.8-1.3 5-7.4 8.2-4.4 13.4-13.1 0.9 0.5-0.7 0.9-0.1 2.8 4.7-0.9 4.6-4.9 13.4-5.1q-0.8 0.9-1.6 1.8-0.8 0.9-1.6 1.9-0.8 0.9-1.6 1.8-0.8 0.9-1.6 1.8c0.8 8.4 9.2 9.2 13.1 3.2 3-3.2 8-6.4 11.8-9.8l0.4 0.1c1.7-0.1 9.3 0.2 10.7 0.7 3.4 3.6-8.2 14.4-10.2 19.1-5.9 9.4-4.8 12.7-7.5 22.1-3.8 13.6-17.9 20.3-29.1 26.5-1.6 0.9-4.9 7-6.9 8.8l0.1-1.3-0.4-0.6c-4.3 2.4-3.4 6.3-6.8 7.5l-0.9-0.6c-0.7-3 1.4-2.5 1.7-5.7-19.9-1.2-10.3-13.2-9.9-25.8l0.1-1c0.9-1.3 1.7-2.2 2.2-3.8l-0.5-0.9c-3.4-0.6-9.7 3.8-12.3 6.2l-0.4 0.2-1.4-0.7c-4.2 2.4-9 4.9-13 7.7-0.8-1.1-1.3-1.7-1.9-3 0.5-0.3 1.4-0.7 1.6-1.1 1.3-2.2 11.5-12.7 13.7-15.1 1-1.8 15.2-17.9 17.6-20.7l1.1 0.1c0.7 0.9 0.4 0.7 1.2 1.3 1.4-1 2.7-2.7 3.8-4z"/><path class="t" d="m252.9 430.7c1.7-0.1 9.3 0.2 10.7 0.7 3.4 3.6-8.2 14.4-10.2 19.1-5.9 9.4-4.8 12.7-7.5 22.1-3.8 13.6-17.9 20.3-29.1 26.5-1.6 0.8-4.9 7-6.9 8.8l0.1-1.3c1.5-1.5 8.2-11.7 7.6-13.4-1.6 0.2-1.5 0.4-2.9-0.1 0-3 4.3-8 4.6-10.9 1.8-15.3 5.9-27.4 22.7-31.1 9.8-2.2 14.8-7.6 20.1-16.3-4 0-8.3 0.6-9.2-4.1z"/><path class="f" d="m181.8 469.9l0.8 0.8c-1.4 3.2-6.8 9.7-7 11.2 2-0.1 25.7-20 31.4-18.6-0.7 1.9-23.5 13.6-25.6 18.1-4.2 2.4-9 4.9-13 7.7-0.8-1.2-1.3-1.8-1.9-3 0.5-0.3 1.4-0.7 1.6-1.1 1.3-2.2 11.5-12.7 13.7-15.1z"/><path class="u" d="m183.2 481.9c2.6-2.4 8.9-6.8 12.3-6.2l0.5 0.9c-0.5 1.6-1.3 2.5-2.2 3.8-2.4 4.6-3.7 7.7-5.6 12.5-1.8 2.4-1.7 3.2-3 5.5-1.2 2-2.9 4.5-4.2 6.4 2.5 4.4 0.5 3.6-0.3 8.9l-1.3 0.5c2.3 4 5.2 7.2 7.5 10.9 1.4 2.2-0.6 5.7 2.8 7.7 3.7-0.9 3.1-4 5.6-5.4 0.1 1.3-0.1 1.1-0.4 2.4 2.7 3.4 17 1.4 20.7-0.5 1.9 0.2 2 0.3 3.7 0.9 1.3-0.5 1.1-0.6 2.4-0.4-3.1 0.6-6.4 0.6-9.7 1.1-2.1 0.4-7.4 2.6-8.6 2.5-5.5-0.2-7.2-3.1-11.1 3-2 3-4.7 7.4-6.9 10.5-1.2 1.8-3.4 4-4.3 5.3l-0.7 0.6c-6.6 6.1-8.9 9.8-13 18-1.2 2.5-3 6-4.6 8.2-0.3-4.9 2.8-5.7 2.5-10-0.2-2-3.2-2.4-4.9-1.9l-0.8-1.1c-3.8 6.3-11.4 26.5-13.8 34l-0.3-0.3c0.2-2.6 0.2-4.7 0.8-7.2 1.1-4.6 2-8.2 4.1-12.4 1.7-2.2 3.6-7.1 4.8-9.9 5-11.4 10.5-22 13-34.3 0.9-3.9 0.6-11.8 0.7-16.1-2.1-2.9-2.2-3.4-2.7-6.9-0.4-3.5-0.5-10.6-5.1-10.8-2.1 1.4-2.1 2.5-3.4 5 0.4-1.5 1.7-6 2.6-7.2 0.3-0.4 1.3 0.2 2.6-1.2 0.1-1.7-0.3-2.3-0.8-3.8 3.5-1 4.3-1.2 7.6-2.9 0.6-0.5 0.7-0.4 1.1-1 3.2-4.4 7.2-6.5 12-8.9z"/><path class="v" d="m162.1 494.9c3.5-1 4.3-1.2 7.6-2.9v0.7c-2.1 1.3-1.8 0.7-2.7 2.5 0.1 1.2 0.9 2.6 1.7 3.3 2 4.1 1.3 7 3.2 11.4 2.7 4.2 3.5 17.2 2 21.8-3.3 11-9.4 23.8-14.3 34.3-3.8 6.3-11.4 26.5-13.8 34l-0.3-0.3c0.2-2.6 0.2-4.7 0.8-7.2 1.1-4.5 2-8.2 4.1-12.4 1.7-2.2 3.6-7.1 4.8-9.8 5-11.5 10.5-22.1 13-34.4 0.9-3.9 0.6-11.8 0.7-16.1-2.1-2.9-2.2-3.4-2.7-6.9-0.4-3.5-0.5-10.6-5.1-10.8-2.1 1.4-2.1 2.5-3.4 5 0.4-1.5 1.7-6 2.6-7.2 0.3-0.4 1.3 0.2 2.6-1.2 0.1-1.7-0.3-2.3-0.8-3.8z"/><path class="p" d="m162.1 494.9c3.5-1 4.3-1.2 7.6-2.9v0.7c-2.1 1.3-1.8 0.7-2.7 2.5 0.1 1.2 0.9 2.6 1.7 3.3 2 4.1 1.3 7 3.2 11.4-1.1 11.3 4.7 17.6-1.7 28.7-0.6-4.5-0.6-16.8-1.3-18.8-2.1-2.9-2.2-3.4-2.7-6.9-0.4-3.5-0.5-10.6-5.1-10.8-2.1 1.4-2.1 2.5-3.4 5 0.4-1.5 1.7-6 2.6-7.2 0.3-0.4 1.3 0.2 2.6-1.2 0.1-1.7-0.3-2.3-0.8-3.8z"/><path class="w" d="m183.2 481.9l1-0.2c2.1-0.3 3-1 4.5-0.6 0.3 2.7-3.5 14.7-5.2 16.5-1.5 2.3-6 7.9-8.4 9-4.7-0.4-2.8-5.1-6.4-8.1-0.8-0.7-1.6-2.1-1.7-3.3 0.9-1.8 0.6-1.2 2.7-2.5v-0.7c0.6-0.5 0.7-0.4 1.1-1 3.2-4.4 7.2-6.5 12-8.9z"/><path class="r" d="m183.2 481.9l1-0.2c2.1-0.3 3-1 4.5-0.6 0.3 2.7-3.5 14.7-5.2 16.5-0.1-3.8 2-10.9-0.2-12.3-6.2-0.2-9.2 5.5-13.6 7.4v-0.7c0.6-0.5 0.7-0.4 1.1-1 3.2-4.4 7.2-6.5 12-8.9z"/><path class="x" d="m193.8 480.4l-0.1 1c-0.4 12.6-10 24.6 9.9 25.8-0.3 3.2-2.4 2.7-1.7 5.7l0.9 0.6c3.4-1.2 2.5-5.1 6.8-7.5l0.4 0.6-0.1 1.3-0.5 0.5c-3.4 3.5-12.5 18.2-17.4 18.9-2-1.3-1-7.8-0.5-10 2.3-4.8-5-3.5-6.5-10.8 0.2-5.8 3.4-6.1 3.2-13.6 1.9-4.8 3.2-7.9 5.6-12.5z"/><path class="w" d="m257.1 451.8c1 1.2 1.1 1.7 2.4 2.1 0.5-1.4 0.8-1.8 1.7-3-0.6 3.4-2.5 13.8-7.6 11.9-2.3-3.4 1-8.6 3.5-11z"/><path class="y" d="m191.5 517.3l-2-0.5c-2.1-3-8-6.4-5.3-11.3l0.8 1c1.5 7.3 8.8 6 6.5 10.8z"/><path class="z" d="m242.9 492.1c9.6-2.7 9 9.8 12.3 12.4 1.8 0.4 1.3 0.1 2.7 1.1 0 2.8-1.1 3.7-2.6 6.4 1.1 1.3 2.1 2.5 3.1 3.8l-2.4 0.5c-6 1.3-12.6 4.1-19 5.8-7.7 2.2-18.4 4.2-25.6 7l-0.4 0.1c-3.5-0.1-11.9 3.6-14.2-1 1.5-4.6 15.3-18.1 19.7-21.3 2.7-1.9 11.5-5.2 14-7.4l-3.2 0.3-0.1-0.8-0.3 0.7h0.3l0.4-1.1c2.5-1.8 3.6 0.4 4.4-0.1 5.2-2.9 4.1-5.9 10.9-6.4z"/><path class="A" d="m232.2 531.7c1.2-0.4 5.8-0.2 6.7 0.7-2.5 0.2-6.2 0.7-8.2 2.2 1.7 1.2 1.7 0.4 3.5 0.1 2.3-0.3 0.7 1.5 2.9 1.2 3.2-0.4 10.7-3.2 13.4-2.1-0.1 1.4-1.6 0.9-2.2 1.5-0.4 0.3-3.4 5.4-3.6 5.5-5.9 4.1-31.3 11.5-37.7 12.2-6.1 1.3-11.6 0.1-17.3 1.5-1.7 0.4-2 1.5-4.4 0.3-1.4-3 9.2-16.4 11.8-17.5 2.6-1 17.1-5.7 19-4.8-0.2 1.7-0.9 1.8-2.3 3.4l0.1 0.3c5.5-0.6 12.6-2.3 17.8-4.3z"/><path class="w" d="m129.5 479.8c5.5-4.9 17.3-4.3 24.1-3.5 6.2 2.3 9.3 4.6 14.5 8.7-0.2 0.4-1.1 0.8-1.6 1.1 0.6 1.2 1.1 1.8 1.9 3 4-2.8 8.8-5.3 13-7.7l1.4 0.7c-4.8 2.4-8.8 4.5-12 8.9-0.4 0.6-0.5 0.5-1.1 1-3.3 1.7-4.1 1.9-7.6 2.9 0.5 1.5 0.9 2.1 0.8 3.8-1.3 1.4-2.3 0.8-2.6 1.2-0.9 1.2-2.2 5.7-2.6 7.2 1.3-2.5 1.3-3.6 3.4-5 4.6 0.2 4.7 7.3 5.1 10.8 0.5 3.5 0.6 4 2.7 6.9-0.1 4.3 0.2 12.2-0.7 16.1-0.3-5.8-2-6.9-7.6-6.6l-0.7-0.1c-2.9-0.3-7.5-2.1-10 0.1-5.4 4.6-7.2 12.6-10.2 18.7-2.8 5.9-12.6 25-19 26.4 5-6.4 8.2-11.4 10.7-19.2l-0.2-0.6c-6.5 6.6-12.4 17.3-19 24.3-3.3 3.4-8.5 5.7-11.4 9.7-3.6 5.4-9.8 11.4-13.1 16.7-4.7 7.6-9.4 13.4-14.7 20.5l-0.6 0.4c-2.7 2-6.1 6.2-7.5 6.6q-0.4-1.1-0.9-2.2c-0.6 1.7-1.8 4.1-3.3 5-1.1-0.1-1.5-0.1-2.6-0.3-6.8 3.3-11.1 8.1-20.4 7.3-6.2 0.6-15.9-1.2-22-3.3-1.3-0.4-1-2.3-1.2-3.8l-0.8-0.1c-0.2 1.5-0.2 2.3-1 3.7-1.6 0.4-5.5 0.9-7 0.3l0.2-0.9c2.7-2.5 0.5-2.4 3.8-5.2l1.3 0.9c3.1-2.7 4.5-10.3 6.1-13.9l0.8 0.8 0.3-0.2q-0.1-0.6-0.2-1.2 0-0.6-0.1-1.2-0.1-0.6-0.2-1.2 0-0.6-0.1-1.2 0.4-0.5 0.9-0.9 0.4-0.4 0.9-0.8 0.4-0.4 0.9-0.8 0.4-0.4 0.9-0.8c7.9-7.6 34.2-30.2 37.5-37.9 0.5-1.5 1.7-3.9 2.4-5.4l2.1-5.2 2.8-6.2c1.6-2 4.1-4.7 6-6.2 3-3.7 7-7.5 10.1-11.3 6.4-7.7 13.1-15.6 19.2-23.6 0.9-1.9 3.9-6.2 5.2-8.3 7-11.4 13.1-19.7 23-28.9z"/><path class="B" d="m129.5 479.8c5.5-4.9 17.3-4.3 24.1-3.5 6.2 2.3 9.3 4.6 14.5 8.7-0.2 0.4-1.1 0.8-1.6 1.1 0.6 1.2 1.1 1.8 1.9 3 4-2.8 8.8-5.3 13-7.7l1.4 0.7c-4.8 2.4-8.8 4.5-12 8.9-0.4 0.6-0.5 0.5-1.1 1-3.3 1.7-4.1 1.9-7.6 2.9 0.5 1.5 0.9 2.1 0.8 3.8-1.3 1.4-2.3 0.8-2.6 1.2-0.9 1.2-2.2 5.7-2.6 7.2-1.6 3.1-2.2 3.3-5.1 5.2-1.7 2.4 0.2 5.1-1.9 7.8-4.4-2.9-6.1-10.5-9.5-14.3-3.5-3.6-5.1-3.1-9.3-3.2-2.2 1.1-7.8 12-9.5 15.1-3.5 6.2-10.7 14.9-12.6 21.5l-0.4 0.5c-3 4.2-9.4 9-6.6 14.3-1.1 1-0.9 0.7-2.4 1.2 1.1 3.6 1 3.7 0.5 7.2l0.7 0.8c-0.4 0.8-1 2-1.8 2.5-10.6 5.8-23.6 10.6-31.3 20.3-1.5 1.9-3.4 4.8-5.2 6.2 0-4.9 10.9-18.5 7.3-25.7-4.5-2.4-3.9-3.7-4.6-8.4 1.6-2 4.1-4.7 6-6.2 3-3.7 7-7.5 10.1-11.3 6.4-7.7 13.1-15.6 19.2-23.6 0.9-1.9 3.9-6.2 5.2-8.3 7-11.4 13.1-19.7 23-28.9z"/><path class="d" d="m162.1 494.9c0.5 1.5 0.9 2.1 0.8 3.8-1.3 1.4-2.3 0.8-2.6 1.2-0.9 1.2-2.2 5.7-2.6 7.2-1.6 3.1-2.2 3.3-5.1 5.2-1.7 2.4 0.2 5.1-1.9 7.8-4.4-2.9-6.1-10.5-9.5-14.3-3.5-3.6-5.1-3.1-9.3-3.2-2.2 1.1-7.8 12-9.5 15.1-3.5 6.2-10.7 14.9-12.6 21.5l-0.4 0.5c-3 4.2-9.4 9-6.6 14.3-1.1 1-0.9 0.7-2.4 1.2l-0.1-0.3c-1.6 0.9-4.5 2.1-6.4 1.9l-0.3-0.8c2.1-4.5 6.3-8.3 8.9-12.4 5.8-9.2 10.6-16.7 18-24.8 3.8-4.2 6.2-13.8 10.9-18.1 5.8-4.9 11 8.3 18.4 7.8 6.4-0.5 1.7-12.7 11.7-11.2l0.7-0.5z"/><path class="f" d="m101.3 517l1.1 0.8c-0.7 5.6-25.6 34.4-30.4 34.1 3-3.7 7-7.5 10.1-11.3 6.4-7.7 13.1-15.6 19.2-23.6z"/><path class="f" d="m129.5 479.8c5.5-4.9 17.3-4.3 24.1-3.5l-0.9 1.4c-2.7 0.1-7-0.5-9.3-0.2-4.8 0.6-8.8 2.2-13.9 2.3z"/><path class="r" d="m63.2 564.3c2.3 4.7 6.8 6.1 5.3 11.1-1.1 3.6-10 19.6-9.5 22.6l0.7 0.1c2.9-2.3 3.9-5 6.2-7.2l0.5 0.6c-5.9 7.9-11.9 14.2-14.2 23.9-0.3 3.1-1.1 5.8-1.7 8.9-0.9 4.4-1.4 9.2-2.4 13.5l-5.2 3.1c-1.7 0.6-3.5 1.1-5.2 1.7-6.2 0.6-15.9-1.2-22-3.3-1.3-0.4-1-2.3-1.2-3.8l-0.8-0.1c-0.2 1.5-0.2 2.3-1 3.7-1.6 0.4-5.5 0.9-7 0.3l0.2-0.9c2.7-2.5 0.5-2.4 3.8-5.2l1.3 0.9c3.1-2.7 4.5-10.3 6.1-13.9l0.8 0.8 0.3-0.2q-0.1-0.6-0.2-1.2 0-0.6-0.1-1.2-0.1-0.6-0.2-1.2 0-0.6-0.1-1.2 0.4-0.5 0.9-0.9 0.4-0.4 0.9-0.8 0.4-0.4 0.9-0.8 0.4-0.4 0.9-0.8c7.9-7.6 34.2-30.2 37.5-37.9 0.5-1.5 1.7-3.9 2.4-5.4z"/><path class="d" d="m58.7 574.9c0.4 2.5-0.1 3.4-1.5 5.6-5.9 3.7-5.2 12.4-10.3 16.3-7 5.3-11.7 14-21 16.1l0.6-0.3c-1.8 0-2.7-0.1-4.4 0.6l-0.9-0.4c7.9-7.6 34.2-30.2 37.5-37.9z"/><path class="C" d="m52.2 615.4c-0.3 3.1-1.1 5.8-1.7 8.9-0.9 4.4-1.4 9.2-2.4 13.5l-5.2 3.1c3.4-4.6 0.2-13 5.3-21.8-0.5 2.4-1.3 8.5-0.4 10.8 2.2-2.1-0.6-2.9 0.4-4.6 1.2-2.2 0.2-4.9 1.1-7.4l0.8 0.9c1-0.4 1.5-2.1 2.1-3.4z"/><path class="w" d="m58.7 574.9c0.5-1.5 1.7-3.9 2.4-5.4 8.9 5.4-0.4 12.8-3.9 11 1.4-2.2 1.9-3.1 1.5-5.6z"/><path class="C" d="m157.7 507.1c1.3-2.5 1.3-3.6 3.4-5 4.6 0.2 4.7 7.3 5.1 10.8 0.5 3.5 0.6 4 2.7 6.9-0.1 4.3 0.2 12.2-0.7 16.1-0.3-5.8-2-6.9-7.6-6.6l-1.8-1.9 0.2-0.1c1.7 1.1 0.8 0.8 2.8 0.9 1.7-1.1 1.2-0.4 1.9-1.9-18.4-3.2-11.6 4.7-22.3 5.2-2.6-1.5-4.7-20.3-7.8-23.8-3.5-1.4-5.4 2.8-6.3 5.6-2 6.8-9.2 12-11.5 18.5q-0.2 0.4-0.4 0.8-0.1 0.4-0.3 0.9-0.2 0.4-0.3 0.8-0.2 0.4-0.4 0.9c-1.6 1.6-2.6 3.2-4.6 4 1.9-6.6 9.1-15.3 12.6-21.5 1.7-3.1 7.3-14 9.5-15.1 4.2 0.1 5.8-0.4 9.3 3.2 3.4 3.8 5.1 11.4 9.5 14.3 2.1-2.7 0.2-5.4 1.9-7.8 2.9-1.9 3.5-2.1 5.1-5.2z"/><path class="p" d="m131.9 502.5c4.2 0.2 5.8-0.3 9.3 3.3 3.4 3.8 5.1 11.4 9.5 14.3-0.8 0.6-0.5 0.3-0.9 1.4 0.4 1.3 0.9 2.5 0.5 3.8-12.5 9.6-9.2-15.8-18.4-22.8z"/><path class="y" d="m101.6 563.2c5.5-2.4 5.8-3.5 10-7.5 2.5-2.3 2.7-2.8 6.1-2.7-7.1 9.7-15.4 24-25.1 30.6l-0.3-0.2c1.1-2 6-8.3 6.1-9.1-8.8-1.4-7.3 3.9-12.6 7.9-5.7 4.2-15.1 2.6-19.4 9.3l-0.5-0.6c-2.3 2.2-3.3 4.9-6.2 7.2l-0.7-0.1c-0.5-3 8.4-19 9.5-22.6 1.5-5-3-6.4-5.3-11.1l2.8-6.2c0.7 4.7 0.1 6 4.6 8.4 3.6 7.2-7.3 20.8-7.3 25.7 1.8-1.4 3.7-4.3 5.2-6.2 7.7-9.7 20.7-14.5 31.3-20.3 0.8-0.5 1.4-1.7 1.8-2.5z"/><path class="D" d="m114.4 535.2l-0.2 0.6c-1.3 3.8-3.1 5.6-3.3 8.8q-0.1 0.1-0.1 0.2c1.4-1.9 0.5-1.3 2.5-2.2l1.4 0.3 0.1 0.5-2.2 1.3c1.3 2.2 2.4 0.7 4.2 2.8-1.7 0-4.1-0.2-5.5 0.6l-0.2 0.9c1.4 1 2.2 1.5 3.7 2.4 1.8-0.5 2.3-1.9 3.5-3.7 1 0.7 0.6 0.4 1 2.2 0.5-1.1 0.7-1.9 1-3l0.7-0.6 0.7 0.4c0.3 2.5-2.1 5.1-4 6.3-3.4-0.1-3.6 0.4-6.1 2.7-4.2 4-4.5 5.1-10 7.5l-0.7-0.8c0.5-3.5 0.6-3.6-0.5-7.2 1.5-0.5 1.3-0.3 2.4-1.2-2.8-5.3 3.6-10.1 6.6-14.3l0.4-0.5c2-0.8 3-2.4 4.6-4z"/><path class="E" d="m120.7 574.4c6.4-1.4 16.2-20.5 19-26.4 3-6.1 4.8-14.1 10.2-18.7 2.5-2.2 7.1-0.4 10-0.1l0.7 0.1c5.6-0.3 7.3 0.8 7.6 6.6-2.5 12.3-8 22.9-13 34.4-1.2 2.7-3.1 7.6-4.8 9.8-2.1 4.2-3 7.9-4.1 12.4l-0.3-4.1-0.2 0.4c-1.9 5.7-1.8 10.5-5.1 17.3-1.6 3.1-7.7 10.8-8 11.8-2.2 1.6-9.2 15.5-10.1 18.4 0.7 0.1 0.4 0.2 1.1-0.1 0 2.4-6.3 5.3-6.7 11.9-8 2.1-16.9-16.7-21.9-21.6-0.5-0.4-1 0.3-2.3-1.1 1-2.6 3.7-6.4 5.5-8.7l-0.2-0.5c-1.8 1.1-4.6 5.6-5.8 7.5l-0.6 0.9-0.9-0.1-1.1 0.4-0.6-0.5c-0.2-2.7 3.2-4.8 2.5-6.8l-1.2 0.2c4.4-5.7 7.3-11.8 11.5-17.5 5.3-7.2 10.2-14.6 15.1-22l-0.3 0.2c0.8-1.8 2.4-2.8 4-4.1z"/><path class="z" d="m120.7 574.4c6.4-1.4 16.2-20.5 19-26.4 3-6.1 4.8-14.1 10.2-18.7 2.5-2.2 7.1-0.4 10-0.1l0.7 0.1c5.6-0.3 7.3 0.8 7.6 6.6-2.5 12.3-8 22.9-13 34.4-1.2 2.7-3.1 7.6-4.8 9.8 4.1-13.9 8-20.6 13.5-33.3 2.2-4.2 2.1-8.7-2.2-11.6 1-0.8 0.5-0.4 2.1-0.7-0.9-1.2-0.5-0.7-2.2-1.5l-0.9 0.4-0.6 1.5c-2.4-0.4-7.1-2.8-9.5-3.9-1.5 4.8-4.3 6-4.9 8-1.7 5.6-4.5 11.5-6.2 16.8q-0.4-0.7-0.7-1.4c-1.6 2.8-6.5 13.1-7.9 15.1l-0.7-0.7c-0.9 2 1.5 1.8-0.2 3.7q-0.9 0.2-2.5 0.5c-10.3 10.6-19 22.4-28.1 34.1-2.2 2.8-0.8 5.4-2 7.4-1.9 3.4-5.3 6.5-6.6 10l-1.1 0.4-0.6-0.5c-0.2-2.7 3.2-4.8 2.5-6.8l-1.2 0.2c4.4-5.7 7.3-11.8 11.5-17.5 5.3-7.2 10.2-14.6 15.1-22l-0.3 0.2c0.8-1.8 2.4-2.8 4-4.1z"/><path class="F" d="m146 588.4l-0.2-0.7c0.9-3.1 0.4-6.9 2-10.4 3.2-6.9 11-25.8 16.1-30.5-5.5 12.7-9.4 19.4-13.5 33.3-2.1 4.2-3 7.9-4.1 12.4z"/><path class="G" d="m181.1 552.2c-0.2 3.1-2.1 5.7 0.8 7.5 2.2 0 13.1-4.4 17.2-3.7 0.3 0.1 7.3-0.6 7.8-0.8 12.1-3.2 24.3-7.1 36.2-11.3 1.3-0.4 5.1-6.8 6.6-7.9 5.1-3 9.1-1.8 8.8-9.4-0.1-2.6 5.4-2.5 7.7-3.8-1.1-0.8-0.7-0.6-2-0.9-1.7 0.7-2.2 1.1-4.1 0.9l-0.9 0.9v-0.1c1.5-2 1.9-2.3 3.9-3.8l0.6-0.3-0.1-0.5c-1.6 0.6-3.3 1.5-4.8 1 0.1-1.5 2.7 0 4-2-0.4-3-2.3-4.3-2.7-7.1 1.7 1.2 2.3 1.8 3.6 3.5 5.8 2.1 12.6-5.1 15.2 0.3 0.8 1.5 0.2 4.5 1.6 6.4 1.9-0.7 2.3-5.2 4.8-6.8l0.6 0.5c-0.4 2.2-0.7 1.8 0.1 3.3 0.7 0.1 1.6 0.2 2.3 0.2l-0.7 0.5c-3.3 2.3-4 1.9-6.9 5.3-0.9-1.3-1.7-2.8-3-3.6-1.3 0.8-4.4 5.4-4.3 6.6 1 10.5-2.6 18.1-4.6 27.9-3.4 3.8-1.4 5.5-6.2 10.4-5.5 0.7-6.1 0.6-10.4 4-2.8-5.9-4.8-10.2-6.8-16.5-0.3-0.9-1.4-4-2.2-4.4-7-3.3-14.7 4-21.2 5.4-5 1-11.1 3.1-16 3.5-7.9 0.6-14.8 1.6-22.4 3.8-2.4 0.6-4.7 0.6-7.3 1.4l-0.2-0.3c1.2-3.6 3.6-5.7 4.3-9.5z"/><path class="z" d="m23.4 653.9c9.5-6.2 14.9-3.3 25.1-6.2 4.6-1.3 9.8-6.3 13.4-6.9l-0.3 0.4c-10.1 12.3-26.9 6.2-31.6 12.3 1 4.7 16 3.8 19.8 3.2 1.7 1.5 1.8 1.7 4 2.2 3.6-1.1 33-0.6 39.2-0.7-6.2-1.2-29.5 1.5-32.2-1.6 2.2-2.2 53.8 2.2 56.8 0.1-0.6-2.9-4.6-3.5-5.4-5.7 3.6-0.8 8.8 3.8 7.2 6.8-0.7 0.2-2.3 0.9-2.9 1v0.4c2.2-0.1 5.5-0.1 7.5-0.6 2 0.5 1.3 0.7 2.7 0.1-1.6-4.4-2.2-2.1-2-6.4l0.4 0.1c1.8 2.1 2.8 3.1 5.5 3.6 7 1.4 16.1 1.1 23.1 0 8.5 4.9 10.4 0.2 14.2 2-1.9 2.5-32.3-0.2-37.2 0.3l0.1 0.6c2.6 0.2 4.5 1.3 6.4 1.3 3.7 0.2 7.6-0.2 11.3-0.2l29.3 0.2c29.3 0.3 58.3 2.3 87.5-0.4 9-0.8 21.6 0.3 30.6 0.8l0.2 0.4q-1.3 0.3-2.6 0.6l-194.8 0.2h-56c-7 0.1-23 0.5-29.2-0.5-5.4-0.7-11.5-2.8-12.4-8.9l0.6-0.1c3.3-11.9 16.4-4.3 21.7 1.6z"/><path class="F" d="m23.4 653.9c9.5-6.2 14.9-3.3 25.1-6.2 4.6-1.3 9.8-6.3 13.4-6.9l-0.3 0.4c-10.1 12.3-26.9 6.2-31.6 12.3 1 4.7 16 3.8 19.8 3.2 1.7 1.5 1.8 1.7 4 2.2h0.5c13 1.5 28.6 0 42 1l-51.9 0.2c-6.4 0-26-1.1-30.9 1.2-5.4-0.7-11.5-2.8-12.4-8.9l0.6-0.1c3.3-12 16.4-4.3 21.7 1.6z"/><path class="H" d="m335.5 626.8c2.5 0.2 11.3 3 13.2 4.4-0.7 1-0.3 0.5-1.7 1 0.8 1.2 1.5 1.4 2.8 2.1 2.1 6.9 6.6 10.6 8.1 17.1-2.8 1.1-11.2 1-14.4 0.5h1c-2.3-0.7-11.3-1.1-13.5 0-1.6 1.7-0.4 2.7-1.8 4.5-2.6-0.5-9.2-2.6-10.5-4.9 0.9-3.1 2.5-3.3 3.2-5.5-1.1 0.3-0.6 0.4-1.7 0-0.3-1.9-0.6-3.7-1-5.6 0-0.5 0-0.1 0.5-1 7.5 1.2 5.9-2.5 8.8-8.9 1.5-0.6 0.8-0.2 1.8-1.9 1.8-1.2 2.7-0.9 4.8-0.8v-0.4z"/><path class="z" d="m73 625.8c2.7-1.5 3.4-3.2 5.4-4.6 7.1-5.2 11.6-18.3 17.4-23.3 0.5 1.8-6.2 10.4-7.3 12.6-4.4 8.4-10.5 14.8-17.7 20.8-2.9 2.5-4.5 4.8-7.8 7.1-1.8 1.4-0.2 1-1.1 2.4-3.6 0.6-8.8 5.6-13.4 6.9-10.2 2.9-15.6 0-25.1 6.2-5.3-5.9-18.4-13.5-21.7-1.6l-0.6 0.1q0-0.3-0.1-0.6 0-0.3 0-0.7-0.1-0.3-0.1-0.6 0-0.3 0-0.6c-0.4-6.4 5.1-14.3 8.3-19.8 2.4-4.2 5.3-10.6 8.4-14q0.2 2.4 0.6 4.8l-0.3 0.2-0.8-0.8c-1.6 3.6-3 11.2-6.1 13.9l-1.3-0.9c-3.3 2.8-1.1 2.7-3.8 5.2l-0.2 0.9c1.5 0.6 5.4 0.1 7-0.3 0.8-1.4 0.8-2.2 1-3.7l0.8 0.1c0.2 1.5-0.1 3.4 1.2 3.8 6.1 2.1 15.8 3.9 22 3.3 9.3 0.8 13.6-4 20.4-7.3 1.1 0.2 1.5 0.2 2.6 0.3 1.5-0.9 2.7-3.3 3.3-5q0.5 1.1 0.9 2.2c1.4-0.4 4.8-4.6 7.5-6.6z"/><path class="y" d="m26.1 644.7c3-0.3 7.8-1 9.9 1.3l-0.3 1.5c-3.2 0.5-8.7 1.3-9.6-2.8z"/><path class="H" d="m63 638.4l0.6 1.2c3.6-1.1 7.7-9.5 16.7-10.2 0.7 0.9 0.5 0.5 0.6 1.7l0.7 0.3c1.3-1.2 2.1-1.9 3.3-3.3 2.2-0.7 4.3-0.2 6.5 0.5l-0.5 1.2c-9.6 0.5-5.4 5.8-12.3 6.7l-0.6-0.4 0.1-1.3c-0.2 0-17.7 16.7-19 18.3-1.4 0.2-1.5 0-2.9-0.2-1.6 0.8-1.7 1.5-2.8 2.1-0.7 0.4-2.5 0.9-3.6 1.4v0.3c-3.8 0.6-18.8 1.5-19.8-3.2 4.7-6.1 21.5 0 31.6-12.3l0.3-0.4c0.9-1.4-0.7-1 1.1-2.4z"/><path class="I" d="m159.6 566l0.8 1.1c1.7-0.5 4.7-0.1 4.9 1.9 0.3 4.3-2.8 5.1-2.5 10-4 9.5-12.4 20.6-18.1 29.1-1.7 2.5-6 8-7.1 10.4l-0.7 1c-4 2.8-4.4 3.6-7.1 8-0.3-4.1 1.2-5.7 2.9-9.6 0.3-1 6.4-8.7 8-11.8 3.3-6.8 3.2-11.5 5.1-17.3l0.2-0.4 0.3 4.1c-0.6 2.5-0.6 4.6-0.8 7.2l0.3 0.3c2.4-7.5 10-27.7 13.8-34z"/><path class="H" d="m125.1 652.4c3.8-1.9 53.1-1.3 61.4-2.7 3.7-0.6 25.5-3.6 28-2.7-1.4 1-9-0.3-12.5 2 0.1 1.3-0.1 0.8 0.9 1.7 1-0.6 0.6-0.3 1.4-1.2 0.7 1.4 0.6 0.7 0.2 2.1-2.5 2-9.7 1.5-13 1.3-1.1-0.7-1-0.8-1.5-2-2.3 0.5-4.3 1.2-6.2 0.3l-0.3 0.2c1.7 0.5 2 0.2 2.7 1.3-3.7 4.4-16.8 2.2-22.2 3-1.6 0.2-9.7 0.1-10.3 0.3-7 1.1-16.1 1.4-23.1 0-2.7-0.5-3.7-1.5-5.5-3.6z"/><path class="w" d="m245.4 552.9c2 6.3 4 10.6 6.8 16.6 4.3-3.5 4.9-3.4 10.4-4.1 4.8-4.9 2.8-6.6 6.2-10.4-0.2 3.9-4.3 14.3-8 15.9-4.3 1.8-3.8-1.9-9.3 2.7l-0.6-0.3c-0.4-1.6-1.8-3-1.5-5.4 0.1-1-0.3-1.3-0.9-2.2-0.5 1.5-0.4 1.6-0.6 3.1l-0.7-0.5c-1-3-2.1-12.2-1.8-15.4z"/><path class="r" d="m137.6 618.5l0.3-0.3c5.2-5.3 14.5-17.8 19.3-23.9l0.2 0.5c-4 7.7-14.5 17.6-18.6 24.6l0.8 0.2c1-1.1 2.7-3.4 4-3.9-1.1 2.9-3.3 7.1-4.9 9.7 1.1 0.7 0.5 0.4 1.7 1-1.3 0.6 0.1 0.1-1.5 0.2-2.9 0.3-5.1 2-8.3 2.8 1.8-3.3 5.3-7.7 6.3-9.9z"/><path class="H" d="m117 648.1c0.4-6.6 6.7-9.5 6.7-11.9-0.7 0.3-0.4 0.2-1.1 0.1 0.9-2.9 7.9-16.8 10.1-18.4-1.7 3.9-3.2 5.5-2.9 9.6-2.9 4.8-8.2 14.2-6.4 19.9l-0.6-0.2c-0.4-1.7-0.7-5 0.3-6.4l-0.3-0.5c-2.7 4.3-4 5.2-4.7 10.4l-0.4 0.2c-0.3-0.8-0.7-2.1-0.7-2.8z"/><path class="H" d="m124 658.6l0.7-0.3c-0.8-0.7-1-0.9-1.9-1.6v0.3l-0.9-1.1c-0.5-2.4-0.4-4 0.9-6.1h0.9c1.1 1.4 0.8 0.6 1 2.5-0.2 4.3 0.4 2 2 6.4-1.4 0.6-0.7 0.4-2.7-0.1z"/><path class="J" d="m255.7 596.3c1.4-0.1 0.9-0.2 2.3 0.1 2.3 3.9-1.1 10-0.4 14.6 0.8 5.3 1.1 11.8-1 16.7l-0.2-0.8c0.9-2.9 1.3-9.9-0.5-12.5h-0.9c-1-0.2-1.5-0.3-2.5-0.4-1 3.1 0.5 6 0 9q0 0.4-0.1 0.8 0 0.4-0.1 0.7 0 0.4-0.1 0.8 0 0.3-0.1 0.7l-0.4-0.4c-1.9-7.3-2.1-17.5-0.4-24.8 2.2-0.3 2.6-2.7 4.4-4.5z"/><path class="J" d="m178.7 604.2c3.3 0.4 7.1 15.8 8.2 19.5l-0.6 0.2c-0.7-2.2-3-4-3.5-6.6-0.1-1-0.8-2.3-1.3-3.2-3.1 3.2-11.9 2.1-13-3.3 2.4-4.7 14.4 1.5 10.2-6.6z"/><path class="z" d="m192.4 636.2c1.6 1 2.6 2.2 3.4 3.8-0.3 5.7-12.2 6.1-14.1 3.1l2.1-1.4c-2.8-0.8-8.4 1.5-11.8-1.3-0.6-0.5-1.6-0.7-2.4-0.6l0.9 1.1c-1.9 0.7-4.6-1-8.9 0.3-1.1 0-6.3 0.2-7.2 0 0.8-2.2 5-0.1 6.3-0.7 5.8-2.9 8-2.5 14.6-1.6 3.7 0.5 8.1 0.3 12 0.8 1.5 1.2 1.8 1.6 3.6 2.2 1.7-0.3 1.6-0.4 2.9-1.6l0.1-1c-1.1-1.2-1.2-1.5-1.5-3.1z"/><path class="H" d="m272.7 647.8c1.9-0.3 4 1.4 5.2 2.7 0.4 1.7 0.5 0.9-0.3 2.5-1.8 1.3-5.6 2.4-7.7 2.2-2.3-0.4-7.8-2.3-6.9-5.4 2.3-1.4 6.3-0.8 9.7-2z"/><path class="K" d="m529.9 517.1c-0.7-3.8-4.1-10.8-2.7-13.8 2.2-4.8-2.2-6.6-1.1-9.7l0.9 0.6 0.2-0.5c-0.6-0.4-0.9-0.6-1.6-0.9l-0.6-0.2c-0.1-1.2-0.2-2.3-0.3-3.4v-0.7c2.8 1-0.4 0.8 3.6 2.5 1.1 1.2 4.7 6.9 5.9 8.7 4.7 6.9 8.8 12.9 14.3 19.2 12.8 12.6 24.7 22.6 32.7 39.2 1.4 2.7 3.5 6.1 4.4 9 1.1 2.5 4.2 8.6 5 10.9 2.3 3.8 4.2 6.8 6.9 10.4l0.4 0.4c4.2 4.8 10.5 9.8 14.3 14.3 9.1 10.7 17.8 27.9 23.5 41 0.5 3 1.1 8.3-0.8 10.8-2.2 2.8-6.1 5.4-9.6 6l-1.1 0.6c-3.5 0.7-24.8 0.3-29.3 0.3h-65-141.2c-22.4-0.1-50.1 0.7-72-0.3l-3.2-0.3-0.6-0.5-0.1 0.4-0.9-0.3h0.5c3-2.4 41.4 0.3 43.2-1.9q-2.3-0.9-4.5-1.8c1.2-2.4 8.8 0.6 10.9-0.6l0.3 0.3c-1.8-1.5-4.2-5.3-4.4-5.4-1.5-6.5-6-10.2-8.1-17.1-1.3-0.7-2-0.9-2.8-2.1 1.4-0.5 1 0 1.7-1-1.9-1.4-10.7-4.2-13.2-4.4l-0.4 0.6v0.4c-2.1-0.1-3-0.4-4.8 0.8-1.1 1.7-0.3 1.3-1.8 1.9 2-6.3 2.2-5.6 6.3-10.7l-0.1-0.2c0.4-1.4 0.7-1.2 1.9-2.3 0.9-1.1 2.5-2.5 3.5-3.5 1.7 1.3 2.7 3.7 4 5.7l0.7-0.7c1.4 1 2.1 1.7 3.7 2.1l1.4-1.1-0.4-1h0.1c-1.6-0.8-2.6-1.1-3.6-2.5-0.2-6.7 10.3-10.2 13.7-13 4.5-3.8 8-8.2 13.1-12 8.8-6.5 23.1-10.2 29.8-18.2 0.7-0.9 1.8-1.2 3-1.8-0.7-1.4-1-2.3-1.4-3.8 0.8-4 3.5-2.1 5.6-5.3v0.3l0.4-2c1.4 0.2 1.9 0 3.2-0.4l0.5-0.2c0.2-0.9 0.4-1.3 0.8-2.1-0.8-0.6-0.8-0.6-1.5-1.3l0.4-0.7c4-2.2 9.2-2.8 13.7-3.4-6.8-0.7-13 2.1-19.3 3.7-1.7 0.5-12.7 0.3-13.6-0.7 5.3-2.6 18.4-5.4 24.9-6.9 4.9-1.1 18.7-0.1 24.2 0.3 0.7 0.3 1.9 0.9 2.5 1.4 3.6 3.7 10 2 15 2.2 3.5 0.2 5.2 0.2 9.1 1.1 3 0.6 8.5 1.9 11.5 1.7 3.6 1.9 11.7 2 14.7-1.2 1.8-1.9 5.7-4.3 8.4-3.4 1.4-2.5 2.5-4.4 4-6.8 0.2-1.4-1-4.4-1.5-5.9 0.8 1.5 1.3 3 2.7 3.8 1.3-0.8 0.7-0.3 1.2-2.4 1-5.2-1.1-6.7 2.5-11.6 2.1 0.5 6.3 1.8 8.1 0.7 0.7-0.4 0.8-1.5 1.1-2.4 0.1-3.5 2.9-5.6 5.4-8.4 4.8 4.9 5.3 9.6 8.6 13-1.7-4-4.8-9.7-6.9-13.5z"/><path class="L" d="m529.9 517.1c-0.7-3.8-4.1-10.8-2.7-13.8 2.2-4.8-2.2-6.6-1.1-9.7l0.9 0.6 0.2-0.5c-0.6-0.4-0.9-0.6-1.6-0.9l-0.6-0.2c-0.1-1.2-0.2-2.3-0.3-3.4v-0.7c2.8 1-0.4 0.8 3.6 2.5 1.1 1.2 4.7 6.9 5.9 8.7 4.7 6.9 8.8 12.9 14.3 19.2 12.8 12.6 24.7 22.6 32.7 39.2 1.4 2.7 3.5 6.1 4.4 9 1.1 2.5 4.2 8.6 5 10.9 2.3 3.8 4.2 6.8 6.9 10.4l0.4 0.4c4.2 4.8 10.5 9.8 14.3 14.3 9.1 10.7 17.8 27.9 23.5 41 0.5 3 1.1 8.3-0.8 10.8-0.5-0.9-0.3-0.3-0.5-1.2-3.4-12.7-8.8 0.7-15.7-0.2-2.4-0.4-3.7-2.6-4.9-4.2 0.2 1.9 0.6 3.8-0.2 5.5-2 0.9-12 4.8-13.7 5-2.1-0.6-8-0.2-10.4-0.2-7.9-0.3-34.2 2-40.3-0.8 1.1-1.3 1.9-2.4 3.3-3.4 0.6-1.1 2.7-4.8 2.8-5.9 1-12.3 0.6-18-6.1-27.7l-0.5 0.2c-4.4-5.9-11.8-20.2-15.7-26.9-2.6-4.5-4.8-10.7-8.6-14.2-4.4-4-19.2-15.4-19.5-20.7 0.3-1.1 1.5-2.2 2.6-2.6 2.3-1.1 2-6.3 2.5-9.7 0.6-1.2 0.4-2.1 0.5-3.5-0.9-0.8-0.4-0.4-1.8-0.6 0.2-1.4-1-4.4-1.5-5.9 0.8 1.5 1.3 3 2.7 3.9 1.3-0.9 0.7-0.4 1.2-2.5 1-5.2-1.1-6.7 2.5-11.6 2.1 0.5 6.3 1.8 8.1 0.7 0.7-0.3 0.8-1.5 1.1-2.4 0.1-3.5 2.9-5.6 5.4-8.3 4.8 4.9 5.3 9.5 8.6 12.9-1.7-4-4.8-9.7-6.9-13.5z"/><path class="M" d="m529.9 517.1c-0.7-3.8-4.1-10.8-2.7-13.8 2.2-4.8-2.2-6.6-1.1-9.7l0.9 0.6 0.2-0.5c-0.6-0.4-0.9-0.6-1.6-0.9l-0.6-0.2c-0.1-1.2-0.2-2.3-0.3-3.4v-0.7c2.8 1-0.4 0.8 3.6 2.5 1.1 1.2 4.7 6.9 5.9 8.7 4.7 6.9 8.8 12.9 14.3 19.2 12.8 12.6 24.7 22.6 32.7 39.2 1.4 2.7 3.5 6.1 4.4 9 1.1 2.5 4.2 8.6 5 10.9 2.3 3.8 4.2 6.8 6.9 10.4l0.4 0.4c4.2 4.8 10.5 9.8 14.3 14.3 9.1 10.7 17.8 27.9 23.5 41l-0.3 4.1-1-1.9c-2.7-1.7-4-2.8-6.4-4.9-2.1-0.5-3.7-1.5-5.8-2-4.7-1.3-8.4 0.7-12.2-2.7-1.8-2-5.6-6.9-6.9-9.1-0.1-0.1-1.7-2.3-2-2.6l-5.5-6.5c-4.7-6.6-5-11.6-9-18.2-4.6-7.8-9.5-16.8-15.7-23.6-4.6-5.1-9.8-9.7-14.5-14.9-0.9-1.8-4.7-6.9-6.1-9.4-1.6-2.8-3.8-7.2-5.5-9.6-0.6-0.8-6.8-10.3-8-12.2-1.7-4-4.8-9.7-6.9-13.5z"/><path class="A" d="m585.6 567.1c-2.4 2 1.3 4.3-0.4 7.4-3.4 0.3-3.9-3.4-6.1-2.1 0.3 1.4 3.1 4.8 4.3 5.7-6.2-0.8-18.2-23.4-22.7-27.8-0.7-0.7-0.6-0.4-1.8-0.3-4.1-4.6-3.7-13-8.6-16.6-2.7-2-6.5-12.1-7-15.4q0.4 0.6 0.8 1.3l0.6-1.4c2 0.4 0.6 1.7 3 2.2l0.8-1.2c12.8 12.6 24.7 22.6 32.7 39.2 1.4 2.7 3.5 6.1 4.4 9z"/><path class="N" d="m547.4 522.5c3.6 2.1 17.4 15.1 20.5 18.6 3.1 3.6 14.9 25.3 13.7 28.9-2.8-1.6-2.7-2.9-4.9-4.9-1.2-1.1-3.9-2.1-5.2-3.4-8.3-8.5-13.6-19.1-18.6-29.7-1.7-3.6-4.9-3.6-5.5-9.5z"/><path class="A" d="m601.1 625c3.1 1.5 4 3.2 6.5 4.2 1.8-4.7-2.9-6.2 2.7-9.1l0.3-0.7-1.5-1.5 0.7-0.5c7.9 1.7 14.8 16.2 19 22.3 1.5 2.3 4.3 4.6 5.6 6.6-2.7-1.7-4-2.8-6.4-4.9-2.1-0.5-3.7-1.5-5.8-2-4.7-1.3-8.4 0.7-12.2-2.7-1.8-2-5.6-6.9-6.9-9.1-0.1-0.1-1.7-2.3-2-2.6z"/><path class="O" d="m611.6 627c-1.5-0.9-1-0.3-1.5-1.7 0.6-2.1 0.1-1.2 1.7-2.7 1-0.1 2.1-0.4 3.1 0.4 4.9 4.2 6.9 11.7 11.5 16.3 0.3 0.4 1.3 1.6 1.6 2.1-2.1-0.5-3.7-1.5-5.8-2-4.7-1.3-8.4 0.7-12.2-2.7 1.1-3.4 0.8-1.3 4.6-3.2 0.5-2.3-0.6-5.7-3-6.5z"/><path class="d" d="m611.6 627c2.4 0.8 3.5 4.2 3 6.5-3.8 1.9-3.5-0.2-4.6 3.3-1.8-2.1-5.6-6.9-6.9-9.2 2.6 1.4 5.7 5.6 8.5 4.2 0.7-1.7 0.3-3 0-4.8z"/><path class="P" d="m590.6 578c2.3 3.8 4.2 6.8 6.9 10.4-1.2 1.5-0.5 1-2 1.6-3.2-1.2-7.2-9.7-4.9-12z"/><path class="Q" d="m522.8 526c0.1-3.5 2.9-5.6 5.4-8.4 4.8 4.9 5.3 9.6 8.6 13 1.2 1.9 7.4 11.4 8 12.2 1.7 2.4 3.9 6.8 5.5 9.6 1.4 2.5 5.2 7.6 6.1 9.5 4.7 5.1 9.9 9.7 14.6 14.9 6.1 6.7 11 15.7 15.6 23.5 4 6.6 4.3 11.6 9 18.2l5.5 6.5c0.3 0.3 1.9 2.5 2 2.6 1.3 2.3 5.1 7.1 6.9 9.2 3.8 3.3 7.5 1.3 12.2 2.6 2.1 0.5 3.7 1.5 5.8 2 2.4 2.1 3.7 3.2 6.4 5l1 1.8 0.3-4.1c0.5 3 1.1 8.3-0.8 10.8-0.5-0.9-0.3-0.3-0.5-1.2-3.4-12.7-8.8 0.7-15.7-0.2-2.4-0.4-3.7-2.6-4.9-4.2-2.6-2.9-4.7-6.7-6.8-10.1q-4.9-7.5-9.9-14.8c-3.2-4.7-6.5-8.6-10-13.4-1.6-2.9-2.7-6.6-4.3-9.5-2.9-5.2-17.8-35.5-25.2-31-2.2 3.5 0.3 3.4-3 6-0.5 1.9-1 4.4-2.4 5.4-2.2-2.2-3.4-4.3-4.8-6.9-0.7 1 1.4 2.9 1.5 5.2-4.7-2.8-11.1-7.2-15.6-10.5-0.7-0.5-0.5-1.4-0.5-2.3l1.4 0.6c-1.3-2.6-15.2-17-17.4-17.6 0 1 2.8 3.8 3.8 5.1l-2.1-0.9c-3.6 0.9-3.5 8-3.1 11.1 0.5-1 0.2-0.7 1-1.2 1.1 2.4 2 5.5 2.8 8l-0.8-0.7c1 0.7 5.2 3.2 5.7 3.9 9.7 14.3 20.2 29.4 25.1 46.1l-0.5 0.2c-4.4-5.9-11.8-20.2-15.7-26.9-2.6-4.5-4.8-10.7-8.6-14.2-4.4-4-19.2-15.4-19.5-20.7 0.3-1.1 1.5-2.2 2.6-2.6 2.3-1.1 2-6.3 2.5-9.7 0.6-1.2 0.4-2.1 0.5-3.5-0.9-0.8-0.4-0.4-1.8-0.6 0.2-1.4-1-4.4-1.5-5.9 0.8 1.5 1.3 3 2.7 3.8 1.3-0.8 0.7-0.3 1.2-2.4 1-5.2-1.1-6.7 2.5-11.6 2.1 0.5 6.3 1.8 8.1 0.7 0.7-0.4 0.8-1.5 1.1-2.4z"/><path class="r" d="m522.8 526c0.1-3.5 2.9-5.6 5.4-8.4 4.8 4.9 5.3 9.6 8.6 13 1.2 1.9 7.4 11.4 8 12.2 1.7 2.4 3.9 6.8 5.5 9.6 1.4 2.5 5.2 7.6 6.1 9.5 4.7 5.1 9.9 9.7 14.6 14.9 6.1 6.7 11 15.7 15.6 23.5 4 6.6 4.3 11.6 9 18.2l-0.7 0.3c-4.6-5.5-4.2-6.4-7.1-12.5-8.1-17.1-19.1-32.8-33.8-44.9-2.2-1.8-2.9 4.1-6.4 5.1-2.1-1-13.4-21.4-16.6-24.4-2.4-2.6-6.4-2.7-8.9-5.4-1.7-1.9-6.8-5.9-8.9-3-0.6 0.9-2.7 9.7-2.7 10.7-0.9-0.8-0.4-0.4-1.8-0.6 0.2-1.4-1-4.4-1.5-5.9 0.8 1.5 1.3 3 2.7 3.9 1.3-0.9 0.7-0.4 1.2-2.5 1-5.2-1.1-6.7 2.5-11.6 2.1 0.5 6.3 1.8 8.1 0.7 0.7-0.3 0.8-1.5 1.1-2.4z"/><path class="y" d="m544.8 542.8c1.7 2.4 3.9 6.8 5.5 9.6 1.4 2.5 5.2 7.6 6.1 9.4-1.2-0.8-5.9-5.6-7.8-7.2-2.9 1.8-0.7 2.8-2.3 5.6-1.4-0.3-2.9-2.6-3.6-3.9-1.5-2.2-6.6-9.4-6.7-11.7 2.1-0.7 5.4 2 8.7 2z"/><path class="d" d="m538.9 548.2c3.4 1 4.8 3.3 5.1 6.9-2.8-1.1-4-4.3-5.1-6.9z"/><path class="Q" d="m529 523.3l1.3 0.2c2.5 2 10.7 14.1 9.9 17.1l-1 0.5c-5.6-4-17-9.9-10.2-17.8z"/><path class="C" d="m595.6 618.5l5.5 6.5c0.3 0.3 1.9 2.5 2 2.6 1.3 2.3 5.1 7.1 6.9 9.2 3.8 3.3 7.5 1.3 12.2 2.6 2.1 0.5 3.7 1.5 5.8 2 2.4 2.1 3.7 3.2 6.4 5l1 1.8-0.1 0.6c-3.4-2.3-9.2-7.6-13.5-4.7-1.8 2.4 0.2 4.4-2.1 6-5.5-1-13.4-15.1-16.6-19.6q-4-5.9-8.2-11.7z"/><path class="z" d="m549.2 658.8c1.1-1.3 1.9-2.4 3.3-3.4 1.4 0.6 2.1 0.7 3 1.8l-0.4 0.8c-2.1 0.5-4.7 0.2-5.9 0.8z"/><path class="d" d="m508.7 543.8c1.4 0.2 0.9-0.2 1.8 0.6-0.1 1.4 0.1 2.3-0.5 3.5-0.5 3.4-0.2 8.6-2.5 9.7-1 0.4-2.3 1.5-2.6 2.6 0.4 5.3 15.1 16.7 19.5 20.7 3.8 3.5 6 9.7 8.6 14.2 3.9 6.7 11.3 21 15.7 26.9 1.7 3.2 4 10.3 0.2 12.6-4-0.4-14.6-17.6-21.5-20.7-9-4.2-16.9-5.5-21-15.1-2.3-5.7-10.9-13.1-16.5-15.9-2.1-2.5-12.4-2.6-15.3-3.3-7.2-1.8-11.3 3.1-17 4.3-5.8 1.2-16.1-0.9-22-0.6-5.2 0-26-9.8-29.2-13.5-0.9-3.8 5.9-5.8 7.5-9.9 0.2-0.9 0.4-1.3 0.8-2.1-0.7-0.6-0.8-0.6-1.5-1.3l0.4-0.7c4-2.2 9.2-2.8 13.7-3.4-6.8-0.7-13 2.1-19.3 3.7-1.7 0.5-12.7 0.3-13.6-0.7 5.3-2.6 18.4-5.4 24.9-6.9 4.9-1.1 18.7-0.1 24.2 0.3 0.7 0.3 1.9 0.9 2.5 1.4 3.6 3.7 10 2 15 2.2 3.6 0.2 5.2 0.2 9.1 1.1 3 0.6 8.5 1.9 11.5 1.7 3.6 1.9 11.8 2 14.7-1.2 1.8-1.9 5.7-4.3 8.4-3.4 1.4-2.5 2.5-4.4 4-6.8z"/><path class="G" d="m508.7 543.8c1.4 0.2 0.9-0.2 1.8 0.6-0.1 1.4 0.1 2.3-0.5 3.5-1.4 4.5-1.9 12.5-8.7 9.5v-0.5l0.5-0.3c2.1-1.8 3-3.1 2.9-6 1.4-2.5 2.5-4.4 4-6.8z"/><path class="A" d="m432.3 553c10.1-0.4 23.6 0.3 33.7 1.4 1.7 0.2 7.5 3.4 10.1 3.8 8.1 1.3 16.3 2.2 23.6 6.5 2 1.2 1.5 6.6 5 8.9 5.9 0 11.1 9.2 14.4 13.2 1.5 1.9 3.8 2.1 4.2 4.6-1.1-0.5-1-0.7-2-0.7l1.8 3.5c1.1 0.1 0.9 0.1 2.1 0.4 2.1 6.9 20.3 24 16.8 27.8-1.9-1.6-1.5-3.3-3.2-4.8 0.2 1.9 0.5 2.3-0.1 3.8-4.8-1.2-4.3-6.3-6-9.7-8-8.2-9.3-8.7-19.2-11.6-2.5-0.8-12-15.8-16.3-17.6l-0.5 0.8c-1.7-1.1-2-1.3-3.9-2l-0.4 0.7c-2 0.7-6.4-1.5-8.7-2.3-3.4-1.2-8.1-2.3-11.8-2.7-1 0-2.3 0.8-3.3 0.9-11.5 0.6-21.9 7.5-34 4.3-6.9-1.7-13.7-5.1-19.3-9.6-0.9-0.7-2.8-1.5-4.1-2.4v-0.9c2-3.1 10.9-11.4 14.4-13.5 1.6-1 4.8-2.1 6.7-2.8z"/><path class="G" d="m402.6 573.1c0.7-0.9 1.8-1.2 3-1.8-0.7-1.4-1-2.4-1.4-3.8 0.8-4 3.5-2.1 5.6-5.3v0.3l0.4-2c1.4 0.2 1.9 0 3.2-0.4l0.5-0.2c-1.6 4.1-8.4 6.1-7.5 9.9 3.2 3.7 24 13.5 29.2 13.5-2.2 0.8-2.5 1-4.2 2.6-8.6 3.7-10.8 10.5-16.2 17.1-3.3 2.2-4 6.2-8.2 5.2-5.3-1.3-8.9-2.2-11.7 3.9-3.8 1.6-19.2 7.2-22.6 7.1-6.3 0-8.2 4.7-14.5 2.4l-0.4 1.1c-2.3-1.9-4.2-2.3-6.9-1.8l0.3 0.3-0.9 0.5-1.5-0.8h-0.3l1.4-1.1-0.4-1h0.1c-1.6-0.8-2.6-1.1-3.6-2.5-0.2-6.7 10.3-10.2 13.7-13 4.5-3.8 8-8.2 13.1-12 8.8-6.5 23.1-10.2 29.8-18.2z"/><path class="F" d="m435.6 583.3c5.9-0.3 16.2 1.8 22 0.6 5.7-1.2 9.8-6.1 17-4.3 2.9 0.7 13.2 0.8 15.3 3.3 5.6 2.8 14.2 10.2 16.5 15.9 4.1 9.6 12 10.9 21 15.1 6.9 3.1 17.5 20.3 21.5 20.7 3.7-2.3 1.5-9.4-0.2-12.6l0.5-0.2c6.7 9.7 7.1 15.4 6.1 27.7-0.1 1.1-2.2 4.8-2.8 5.9-1.4 1-2.2 2.1-3.3 3.4 6.1 2.8 32.4 0.5 40.3 0.8 2.4 0 8.3-0.4 10.4 0.2 1.7-0.2 11.7-4.1 13.7-5 0.8-1.7 0.4-3.6 0.2-5.5 1.2 1.6 2.5 3.8 4.9 4.1 6.9 1 12.3-12.4 15.7 0.3 0.2 0.9 0 0.3 0.5 1.2-2.1 2.8-6.1 5.4-9.6 6l-1.1 0.6c-3.9-0.5-13.7-0.2-17.9-0.2h-33-111.7l-25.3-0.1c-2.4 0-10.3 0.3-12.2-0.1 0.4-1.3 2.5-1.2 3.8-1.2 36.2-0.8 73.3 0.9 109.3-2.6 11.8-1.2 15.3-10.4 6.8-18.5-2.4-2.2-4.6-9.3-6-12.5-3-7-7.7-5.8-13.8-8.8-2.6-1.8-15.6-11.6-17.1-13.5-3.1-4.2-7.6-16.2-14-17.6-6.8-1.5-19.6 1.8-26.1 1.8-10.8 0.2-26.3-3.8-36.8 0.8-2 0.9-3.8 2.9-4.4 5-3 2.8-5.9 9.7-9.3 10.1-1.1-0.6-0.8-0.2-1.3-1.1 5.4-6.6 7.6-13.4 16.2-17.1 1.8-1.6 2-1.8 4.2-2.6z"/><path class="R" d="m613.8 649.3c1.2 1.6 2.5 3.8 4.9 4.2 6.9 0.9 12.3-12.5 15.7 0.2 0.2 0.9 0 0.3 0.5 1.2-2.1 2.8-6.1 5.4-9.6 6-6.4-0.5-20.4 0.1-28.3-0.2l-0.3-0.4c1.3 0 2 0.1 3.2-0.5 1.7-0.2 11.7-4.1 13.7-5 0.8-1.7 0.4-3.6 0.2-5.5z"/><path class="p" d="m435.6 583.3c5.9-0.3 16.2 1.8 22 0.6 5.7-1.2 9.8-6.1 17-4.3 2.9 0.7 13.2 0.8 15.3 3.3-1.3-0.1-2.1-0.2-3.4 0.2-3.2 1.1-14.7-0.1-16.9 1.1-0.4 0.9-0.5 1.7-1.1 1.8-8 0.9-30.4-2.3-37.1-0.1 1.7-1.6 2-1.8 4.2-2.6z"/><path class="S" d="m344.1 619.5l0.7-0.7c1.4 0.9 2.1 1.7 3.7 2.1h0.3l1.5 0.8 0.9-0.5-0.3-0.3c2.7-0.5 4.6-0.1 6.9 1.8l0.4-1.1c6.3 2.3 8.2-2.4 14.5-2.4-2.2 0.8-12.9 10.7-13.9 12.8-0.7 1.8-1.5 2.7-3.3 3.4-2.7-0.3-1.9 0.1-3.6-1.4-2-8.6-5.3-8.4-7.8-14.5z"/><path class="J" d="m348.8 620.9l1.5 0.8 0.9-0.5-0.3-0.3c2.7-0.5 4.6-0.1 6.9 1.8l2.1 1.1-0.1 0.8-1 0.7c-3.4 0.5-8.7-1.1-10-4.4z"/><path class="w" d="m395.3 612.1c5.1-0.9 19.5-4.8 22.6-0.7-2.9 0.1-5.1-0.3-8-0.8-6.7 3.6-10 2.3-15.4 4.3-0.3 0 5.7 0.5 5.6 0.5l-1.4 1.4 2.1 0.4c-1.3 0.6-6.9 0.7-8.7 0.7-7 0.4-13.2 1.5-20 3.5-2.2 3.2-9.8 9.5-13.3 10.6 1-2.1 11.7-12 13.9-12.8 3.4 0.1 18.8-5.5 22.6-7.1z"/><path class="T" d="m415.2 603c0.5 0.9 0.2 0.5 1.3 1.1 3.4-0.4 6.3-7.3 9.3-10.1-0.6 4.2-3.2 5.5-5 9.2-1.2 2.4 0.9 4.3 0.4 6.2-0.3 1.1-0.2 0.2-0.1 1.3 2 0.9 5.6 1.6 6.5 2.1-2.3 1.2-7.1-0.6-9.7-1.4-3.1-4.1-17.5-0.2-22.6 0.7 2.8-6.1 6.4-5.2 11.7-3.9 4.2 1 4.9-3 8.2-5.2z"/><path class="U" d="m340.1 613.8c1.7 1.3 2.7 3.7 4 5.7 2.5 6.1 5.8 5.9 7.8 14.5-3-3.6-4.9-9.2-10.8-10.1-1.9-0.4-4.4-0.3-6 0.8l0.4 2.1-0.4 0.6v0.4c-2.1-0.1-3-0.4-4.8 0.8-1.1 1.7-0.3 1.3-1.8 1.9 2-6.3 2.2-5.6 6.3-10.7l-0.1-0.2c0.4-1.4 0.7-1.2 1.9-2.3 0.9-1.1 2.5-2.5 3.5-3.5z"/><path class="w" d="m334.8 619.8l-0.1-0.2c0.4-1.4 0.7-1.2 1.9-2.3l0.9 0.3c-1 0.7-1.9 1.4-2.7 2.2z"/><path class="z" d="m335.5 626.8l-0.4-2.1c1.6-1.1 4.1-1.1 6-0.8 5.9 0.9 7.8 6.5 10.8 10.1 1.7 1.6 0.9 1.1 3.6 1.4 0.8 0.6 0.4 0.3 0.8 1.8 1.8 0.8 12.5-5.8 16.2-5.1v0.5c-3.5 0.5-4.8 2.7-6.8 3.2-4.5 1-6 1.9-10.3 4.1-2.4-2.2-2.7-3.5-5.6-5.6-1.3-0.7-2-0.9-2.8-2.1 1.4-0.5 1 0 1.7-1-1.9-1.4-10.7-4.2-13.2-4.4z"/><path class="w" d="m342.4 455.5c3.3-1.6 6.6-7.9 10.9-8.6 2.7-0.5 3.5 1 5.8 1.5l-0.6 0.5c7.3 7.8 7.7 3.1 15.9 3.3 3.3 0 12.4 3.4 16.2 4.4l-0.3 0.8-0.1-0.1c0.8 1.1 0.4 0.6 1.8 1.3 2.4 0.7 7 3.8 6.6 6.4-0.1 1.3-0.2 2.3 0.4 3.5h0.6l0.5-1.7c1 0.7 3.6 7.3 4.7 9.3l-0.3 0.3-1.2-0.7c0.5 1.4 5 7.7 6 9.3 4.5 7.3 18.7 32.9 25.8 35.8 1.9-3-4.2-12.7-1.2-18.7 2.9-6 5.5-2.6 10.4-4.8 0.6-1 1-1.5 1.7-2.5l0.6-0.6c1.8 0.9 5.4 7.6 6 9.6 0.4-2.3 0.3-6.3 0.4-8.8 2.4 0.7 3.7 4.7 4.8 5.8 3.2 7.3 20 48.6 12.3 52.7-3.9-0.9-5.6-0.9-9.1-1.1-5-0.2-11.4 1.5-15-2.2-0.6-0.5-1.8-1.1-2.5-1.4-5.5-0.4-19.3-1.4-24.2-0.3-6.5 1.5-19.6 4.3-24.9 6.9 0.9 1 11.9 1.2 13.6 0.7 6.3-1.6 12.5-4.4 19.3-3.7-4.5 0.6-9.7 1.2-13.7 3.4l-0.4 0.7c0.7 0.7 0.7 0.7 1.5 1.3-0.4 0.8-0.6 1.2-0.8 2.1l-0.5 0.2c-1.3 0.4-1.8 0.6-3.2 0.4l-0.4 2v-0.3c-2.1 3.2-4.8 1.3-5.6 5.3 0.4 1.5 0.7 2.4 1.4 3.8-1.2 0.6-2.3 0.9-3 1.8-6.7 8-21 11.7-29.8 18.2-5.1 3.8-8.6 8.2-13.1 12-3.4 2.8-13.9 6.3-13.7 13 1 1.4 2 1.7 3.6 2.5h-0.1l0.4 1-1.4 1.1c-1.6-0.4-2.3-1.1-3.7-2.1l-0.7 0.7c-1.3-2-2.3-4.4-4-5.7-1 1-2.6 2.4-3.5 3.5-1.2 1.1-1.5 0.9-1.9 2.3l0.1 0.2c-4.1 5.1-4.3 4.4-6.3 10.7-2.9 6.4-1.3 10.1-8.8 8.9-0.5 0.9-0.5 0.5-0.5 1-1 3-1.2 6.3-1.6 9.5-8.1-0.5-17.2-4.9-25.8-7.2-0.1-1.2 0.9-7.3 1.6-8.2 1.5-2 6.9-2.1 8.6-4.2l-1.2-8.1c-5.1-3.8-1.9-6.5-3.6-11.5-0.4-1.2-5.3-7.7-5.5-9.2-0.4-7.2 2.2-15.3 6.2-21.3 1.4-2.1 1.6-1.6 0.8-3.9-0.9-0.6-1.2-0.8-2.3-1.1l0.2-0.6-0.7-0.3c-0.3-0.9 0.3-1.4 0.8-2.7-2.9 1.8-9.2 8.3-12.5 4.9-0.5-2 0.6-4.6 1.4-6.5 0.2 2.3-0.2 1.9 1 3.2 3.8 0.8 7.8-4 10.2-6.4-1.6-1.3-2-1.5-3.3-3.1-0.6-5.5 3.9-9.9 3.9-12.3 0.1-7.1-1.1-8.7 0.9-16.1-0.7 0.3-1.6 0.8-2.4 0.9l-0.4-0.8c3.3-11 8-22.3 11.4-33.4 2.7-8.7 7-30.6 13.2-36.5 1.3 4.7-5.1 7.2-4.4 12 1.7-1.1 1.3-3.3 2.3-4.7 7.2-9.2 9.2 6.8 13.5 9.1 0.9-2.6 0.5-4.2 1.8-7.9l0.4 1c5.1-4 5.8-10.6 8.4-17.3 2-1.5 6.3-4.2 6.7-6.5-1.8 0.4-3.1 3.3-6.1 4.9z"/><path class="r" d="m358.5 448.9c7.3 7.8 7.7 3.1 15.9 3.3 3.3 0.1 12.4 3.4 16.2 4.4l-0.3 0.8-0.1-0.1c0.8 1.1 0.4 0.6 1.8 1.3 2.4 0.7 7 3.8 6.6 6.4-0.1 1.3-0.2 2.3 0.4 3.5h0.6l0.5-1.7c1 0.7 3.6 7.3 4.7 9.3l-0.3 0.3-1.2-0.7c0.5 1.4 5 7.7 6 9.3 4.5 7.3 18.7 32.9 25.8 35.8l0.6 0.5-0.3 0.5c1 1.3 4.6 8.5 4.6 9.9-2.2-1.1-3.7-3.2-5.6-4.8-4.1-3.7-8.1-7.6-12.3-11.1-2.5-2.1-4.5-4.5-7.5-5.7-5.4-2.3-10.5-2.6-16.2-3.1-1.2-0.1-4.1-3.2-5.5-3.8-1.8-0.7-3.5-0.5-5.4-1.3-0.2-1.2 0-0.8-0.7-1.7-0.9 0.5-1.1 0.6-2.1 0.9l-0.9-1.4h-0.5c-5.2 3.6-8.4-3.1-11.4-0.1-0.3 1.5-0.4 2.8-1.3 3.9-3.1 0-3.5-2.7-6.5-2.7-1.8 3.5 0.8 5.6-1.1 8.7l-0.6-0.2q-1.2-4.4-2.3-8.8-1.1-4.4-1.9-8.9-0.9-4.5-1.5-9-0.7-4.5-1.2-9c-1-1.3-0.9-1.2-1.2-2.9 1.4-4.2 2.2-16.3 4.2-21.8z"/><path class="C" d="m355.5 473.6l0.6-4.2c1.2 0.8 1.3 6.6 2.4 8.2l0.3-4.6c0.9 0.5 0.7 1.6 1.2 2.6 1.1 2.2 0.1 4.9 0.5 6.7 0.7 3.4 3.3 6.7 2.4 10.5l-1.6-1.4h-0.6c0 1.9 2.3 7.8 3.4 9.4-1.8 3.5 0.8 5.6-1.1 8.7l-0.6-0.2q-1.2-4.4-2.3-8.8-1.1-4.4-1.9-8.9-0.9-4.5-1.5-9-0.7-4.5-1.2-9z"/><path class="V" d="m342.4 455.5c3.3-1.6 6.6-7.9 10.9-8.6 2.7-0.5 3.5 1 5.8 1.5l-0.6 0.5c-2 5.5-2.8 17.6-4.2 21.8-1.3 0.5-4.2 1-4.8 2.5-1.5 3.9-3.8 4.9-7.3 6.5-4.6 7.6-7.2 26-13.5 31.8-0.5-1.9-0.1-2 0.7-3.8 1.9-3.9 2.1-8.4 4.3-12.3l-0.4-0.6c-2.9 1.9-2.2 7.5-4.7 9.4-0.2-2.2 4.3-25.9 5.1-29.2 5.1-4 5.8-10.6 8.4-17.3 2-1.5 6.3-4.2 6.7-6.5-1.8 0.4-3.1 3.3-6.1 4.9z"/><path class="W" d="m435.1 520.8c1.9-3-4.2-12.7-1.2-18.7 2.9-6 5.6-2.6 10.4-4.8 0.6-1 1-1.5 1.7-2.5 1.8 4.6 0.8 12-0.3 16.7l0.6 0.4c-2 5.2-1.3 11.9-3.6 17.2 0 0.2-0.4 1.5-0.4 1.7-0.6-1.7-1.4-2.7-2.5-4.2l-0.1 0.2c-1.8-2.1-2.1-4.5-4-5.5z"/><path class="J" d="m340.1 613.8c3-2.7 9.5-9.3 12.8-11.2 8.2-4.9 14.7-10.3 21.6-17.1 2.6-2.6 4.9-6.2 7.7-9l0.5 0.4c-0.3 0.7-8.7 11.5-9.4 12.1l-0.5 0.5c5.6-2.7 12.1-6.2 17.6-9.2 3-1.5 9.7-6.2 12.2-7.2-6.7 8-21 11.7-29.8 18.2-5.1 3.8-8.6 8.2-13.1 12-3.4 2.8-13.9 6.3-13.7 13 1 1.4 2 1.7 3.6 2.5h-0.1l0.4 1-1.4 1.1c-1.6-0.4-2.3-1.1-3.7-2.1l-0.7 0.7c-1.3-2-2.3-4.4-4-5.7z"/><path class="Q" d="m446.3 511.9c0.4-1.3 0.4-1.6 1-2.7l0.4 0.4c-0.3 4.4-0.9 6.8-1.5 11-0.5 3.9 2.1 10.5 0.1 14.3-1.4-1.3-2-4-2.4-5.8l-0.4 0.9c-0.4 0.9-0.5 1.1-1.2 1.9-0.2-0.8-0.2-0.5 0-1.1 0-0.2 0.4-1.5 0.4-1.7 2.3-5.3 1.6-12 3.6-17.2z"/><path class="F" d="m371.4 540.6c4.6 0.2 4 3 5.9 5.9 2.7 1 5.3 2.6 5.2 5.7-0.3 5-7.2 9.4-10 13.3-2.5 3.4-5.4 8.9-8.1 11.6l-0.6-0.7c-2.1 1.6-3.1 3.4-5 3.7l-0.8-0.6c-1.8-13.9 6.5-16.3 6-29.4-0.1-1.8 4.7-3.8 4.4-8.6l0.6-0.6 0.8 0.2 0.1 0.9q0.2-0.3 0.3-0.6l0.7-0.2z"/><path class="z" d="m465.7 538.1c3.6 2.4 4.8 8.1 2.4 11.8l-1.1-0.4c-2.2-2.9-2.1-8-1.3-11.4z"/><path class="d" d="m348.5 364c10.2 1.2 15.1 7.6 21.1 15.1 5.7 7.1 11.2 14.4 17 21.4 3.1 4 25 30 26.2 33.4 1.5 1.9 5 6.6 5.9 8.6 7.8 9.7 10.4 14.5 20.5 22.5 15.5 12.4 8.3-3.8 20.6-5.2 0.5-0.1 9.4 1.6 10.3 2.2 8.2 0.9 39.3 12.2 47.8 15.4 2.7 2.5 8.7 10.3 10.4 13.6-4-1.7-0.8-1.5-3.6-2.5v0.7c0.1 1.1 0.2 2.2 0.3 3.4l0.6 0.2c0.7 0.3 1 0.5 1.6 0.9l-0.1 0.5-1-0.6c-1.1 3.1 3.3 4.9 1.1 9.7-1.4 3 2 10 2.7 13.8 2.1 3.8 5.2 9.5 6.9 13.5-3.3-3.4-3.8-8-8.6-13-2.5 2.8-5.3 4.9-5.4 8.4-0.3 0.9-0.4 2-1.1 2.4-1.8 1.1-6-0.2-8.1-0.7-3.6 4.9-1.5 6.4-2.5 11.6-0.5 2.1 0.1 1.6-1.2 2.4-1.4-0.8-1.9-2.3-2.7-3.8 0.5 1.5 1.7 4.5 1.5 5.9-1.5 2.4-2.6 4.3-4 6.8-2.7-0.9-6.6 1.5-8.4 3.4-2.9 3.2-11.1 3.1-14.7 1.2-3 0.2-8.5-1.1-11.5-1.7 7.7-4.1-9.1-45.4-12.3-52.7-1.1-1.1-2.4-5.1-4.8-5.8-0.1 2.5 0 6.5-0.4 8.8-0.6-2-4.2-8.7-6-9.6l-0.6 0.6c-0.7 1-1.1 1.5-1.7 2.5-4.8 2.2-7.5-1.2-10.4 4.7-3 6.1 3.1 15.8 1.2 18.8-7.1-2.9-21.3-28.5-25.8-35.8-1-1.6-5.5-7.9-5.9-9.3l1.2 0.7 0.2-0.3c-1.1-2-3.7-8.6-4.7-9.3l-0.5 1.7h-0.5c-0.7-1.2-0.6-2.2-0.5-3.5 0.4-2.6-4.2-5.7-6.6-6.4-1.4-0.7-1-0.2-1.8-1.3l0.1 0.1 0.3-0.8c-3.8-1-12.9-4.4-16.2-4.4-8.2-0.2-8.6 4.5-15.9-3.4l0.7-0.4c-2.4-0.5-3.2-2-5.9-1.6-4.3 0.8-7.6 7.1-10.9 8.7-1.5 0.6-2.8 1.3-4-0.1 0.2-2 1.5-3.2 3.1-4.2l0.3 0.4c-0.9 1.1-1.1 1.1-1.4 2.4l0.6 0.5c4.6-3.1 10.1-11.3 11.8-16.5-0.5-1.6-0.2-1.7-1.3-2.5-2.7 0.5-3 0.6-5.6 0.4 3.2-3.3 27.5-5 31.6-1.8 2.5 2 2.2 1.5 5 0.3l0.7 0.6c-1.3 0.9-3.6 1.2-5.3 1.5 5.7 1.6 4.1 5 7.4 6.2 1.1-2.4-1 0.3-1.1-2.7 1.3-1.2 2-2 3.7-2.7l0.3 0.8c-1.6 1-1.2 0.4-1.9 1.8 0.4 2-0.2 1.3 1.2 2.3l0.6-0.5c1.2-0.4 0.8-0.3 2.1-0.4 4.2 3.4 4.9 3.5 9.9 3.2l0.5-0.7c-0.9-2.5-0.7-3-0.4-5.7-1.8-0.2-0.9 1.8-3.6 2.1l0.1-1.4c-1.7-0.7-4.7 0.5-7.3-1.3l0.4-1.1c1.6-0.5 3.7 0 5.8-0.4-0.5-0.2-1.2-0.4-1.7-0.6 2.1-1.2 3.8-1.5 6.1-2.1 1.3-1.5 1.5-3.5 1.7-5.5-12.7-7.6-9.8-5.3-17.1-17.6-6.7-11.2-15.5-28.3-24.8-36.9l-0.1-1.6c-4.7-0.7-10.7-4.2-14.6-3.4l-3.4 0.6-0.4-0.4 0.8-2c2.5-0.4 3.6-0.6 6-1.4z"/><path class="X" d="m359.7 371.7c11.1 7.1 24.3 36.1 33 47.1 4.9 6.1 13.2 8.5 16.7 14.2 3 5.5 5.7 11.8 8.3 17.4 2.8 6.2 6.2 11.7 9.6 17.5 3.8 6.6 5.5 11.9 14.5 10.4 1.4-0.2 1.5-1.8 3.1-2.8 0.6 1.5-2.7 5.7-2.9 8.6-1.2 1.2-1.2 1.6-2.5 1.8l-0.8-0.7c-0.9 1.8-0.4 2.3 0.5 4.1-1.1 1-1.2 1-2.6 1.6l-0.2 0.6 2.4 0.5-0.2 0.6c-4.5 1.3-4.9-1.7-7.6 3.2-1.7 3.1-1.7 4.4-4.2 7.1 0.9 3.9 3.9 9.9 6.3 13.1l0.1 0.6c-2-0.7-14.7-20.6-16.6-23.8-7-11.7-11.3-26.8-20.5-37.2-0.1-0.2-1.3 0.2-1.4 0.2l-1.5-1.1-0.4 0.3-0.1 1.1 0.3 0.2-0.6-0.8c0.7 0.7 1.1 1 1.9 1.6l-0.3 0.9-2 0.6c-1.4-0.7-1-0.2-1.8-1.3l0.1 0.1 0.3-0.8c-3.8-1-12.9-4.3-16.2-4.4-8.2-0.2-8.6 4.5-15.9-3.3l0.6-0.5c-2.3-0.5-3.1-2-5.8-1.5-4.3 0.7-7.6 7-10.9 8.6-1.5 0.6-2.8 1.3-4-0.1 0.2-2 1.5-3.2 3.1-4.2l0.3 0.4c-0.9 1.1-1.1 1.1-1.4 2.4l0.6 0.5c4.6-3.1 10.1-11.2 11.8-16.5-0.5-1.6-0.3-1.7-1.3-2.5-2.7 0.5-3 0.6-5.6 0.4 3.2-3.3 27.5-5 31.6-1.8 2.5 2 2.2 1.5 5 0.3l0.7 0.6c-1.3 0.9-3.6 1.2-5.3 1.5 5.7 1.6 4.1 5 7.4 6.2 1.1-2.4-1 0.3-1.1-2.7 1.3-1.2 2-2 3.7-2.7l0.3 0.8c-1.6 1-1.2 0.4-1.9 1.8 0.4 2-0.2 1.3 1.2 2.3l0.6-0.4c1.2-0.5 0.8-0.4 2.1-0.5 4.2 3.4 4.9 3.5 9.9 3.2l0.5-0.7c-0.9-2.5-0.7-3-0.4-5.7-1.8-0.2-0.9 1.8-3.6 2.1l0.1-1.4c-1.7-0.7-4.7 0.5-7.3-1.3l0.4-1.1c1.6-0.5 3.7 0 5.8-0.4-0.5-0.2-1.2-0.4-1.7-0.6 2.1-1.2 3.8-1.5 6.1-2.1 1.3-1.5 1.5-3.5 1.7-5.5-12.7-7.6-9.8-5.3-17.1-17.5-6.7-11.3-15.5-28.4-24.8-37z"/><path class="y" d="m395.6 436c2.7-1.5 3.7-1.6 6.5-2.3 0.6 3.9 4.9 17.2 0.3 18.2-3.1-1.1-5.1-2.8-8-4-3.6-1.5-4.1-4-6.3-6.1 1.2-0.5 0.8-0.4 2.1-0.5 4.2 3.4 4.9 3.5 9.9 3.2l0.5-0.7c-0.9-2.5-0.7-3-0.4-5.7-1.8-0.2-0.9 1.8-3.6 2.1l0.1-1.4c-1.7-0.7-4.7 0.5-7.3-1.3l0.4-1.1c1.6-0.5 3.7 0 5.8-0.4z"/><path class="Q" d="m458.6 493.8l0.7-3.7c0.4-1.9-0.2-5.2 0.7-5.7 3-1.6 8.5-1.9 11.8-1.6 1.6 0.8 2.3 1.5 2.9 3.2 4.9 14.2 16.8 24.6 25 36.8 2.4 3.4 4.3 9.7 6.4 12.8l1.1 2.3c0.5 1.5 1.7 4.5 1.5 5.9-1.5 2.4-2.6 4.3-4 6.8-2.7-0.9-6.6 1.5-8.4 3.4-2.9 3.2-11.1 3.1-14.7 1.2-3 0.2-8.5-1.1-11.5-1.7 7.7-4.1-9.1-45.4-12.3-52.7-0.4-2.2-3.8-7.8-4.8-10.9 0.3-1.9 0.3-2.9 1.2-4.5 0.9 0.8 1 3.2 1.2 4.7 0.4-2.2-0.2-4.3-0.5-6.5 1.5 2.1 2.9 7.6 3.7 10.2z"/><path class="J" d="m454.9 483.6c1.5 2.1 2.9 7.6 3.7 10.2 3.8 11 6 18.6 11.9 28.9 3.6 6.3 8.6 15.9 6.3 22.9-0.7 1.8-2.5 2.2-2.3 4.4 2 2.9 3.8 4.1 7.1 5.2-3 0.2-8.5-1.1-11.5-1.7 7.7-4.1-9.1-45.4-12.3-52.7-0.4-2.2-3.8-7.8-4.8-10.9 0.3-1.9 0.3-2.9 1.2-4.5 0.9 0.8 1 3.2 1.2 4.7 0.4-2.2-0.2-4.3-0.5-6.5z"/><path class="p" d="m454.5 480.5c-1-1.9-0.7-0.9-0.4-3.2 1.6-2.3 11.6-4.6 13.6-1.7 0.3 0.5 2.1 0.9 2.7 1 5.8-4.1 8.2 1.1 11.8 0.9 8.6-0.4 15.7 2.9 23 4.3 23 4.1 15.2 25.4 24.7 35.3 2.1 3.8 5.2 9.5 6.9 13.5-3.3-3.4-3.8-8-8.6-13-2.5 2.8-5.3 4.9-5.4 8.4-0.3 0.9-0.4 2-1.1 2.4-1.8 1.1-6-0.2-8.1-0.7-3.6 4.9-1.5 6.4-2.5 11.6-0.5 2.1 0.1 1.6-1.2 2.4-1.4-0.8-1.9-2.3-2.7-3.8l-1.1-2.3c-2.1-3.1-4-9.4-6.4-12.8-8.2-12.2-20.1-22.6-25-36.8-0.6-1.7-1.3-2.4-2.9-3.2-3.3-0.3-8.8 0-11.8 1.6-0.9 0.5-0.3 3.8-0.7 5.7l-0.7 3.7c-0.8-2.6-2.2-8.1-3.7-10.2z"/><path class="r" d="m454.5 480.5c2-5.1 4.3-4.1 9.1-6.2 2.6 1.5 6.6 3.7 9 5.6 7.9 6.3 7.7 17.8 14.7 25.5 3.2 3.5 6.8 2.5 9.4 6.2 4.2 1.1 10.2-0.8 12.6 1.2-2.6-0.1-7.4-0.6-9.3 0.8-0.8 3.9 7 8.2 9.4 12.1-0.9 0.7-1.7 1.2-2.6 1.8-1.9 2.9-1.1 4.6-0.7 8.1-2.1-3.1-4-9.4-6.4-12.8-8.2-12.2-20.1-22.6-25-36.8-0.6-1.7-1.3-2.4-2.9-3.2-3.3-0.3-8.8 0-11.8 1.6-0.9 0.5-0.3 3.8-0.7 5.7l-0.7 3.7c-0.8-2.6-2.2-8.1-3.7-10.2z"/><path class="d" d="m500.4 514.3c11.2-1.4 15.9 3.6 22.4 11.7-0.3 0.9-0.4 2.1-1.1 2.4-1.8 1.1-6-0.2-8.1-0.7-2.2-0.4-11.5-10.8-13.2-13.4z"/><path class="G" d="m509.4 525.7c2.5 3.4 1.1 8.8 1.7 13.6-0.5 2.1 0.1 1.6-1.2 2.4-1.4-0.8-1.9-2.3-2.7-3.8l-1.1-2.3c-0.4-3.5-1.2-5.2 0.7-8.1 0.9-0.6 1.7-1.1 2.6-1.8z"/><path class="f" d="m517.9 477.4c-1.2 0-1.9 0.1-3 0.3l1.4 0.6 0.2 0.7c-1.3 0.5-1.5-0.1-3.3-0.8l-0.6 1c-2.7 0.3-3.5-0.4-5.5-2q0.2 0.8 0.4 1.5c2.1 0.9 4.5 2.2 6.3 3.4l-0.4 0.4c-6.3-1.1-14.8-6.1-21-7.2-10.4-2-19.4-0.2-27.5-8.2-5-4.9-8.5 6-12.5 7-4.1 1-8.8 0.2-13.2 2.2-0.9 0.4-3.9-0.5-4.6-1.4-8.4-9.9-14.8-22.4-20.2-34.2-0.9-2-2.6-4.2-2.7-6.1l1.1-0.7c1.5 1.9 5 6.6 5.9 8.6 7.8 9.7 10.4 14.5 20.5 22.5 15.5 12.4 8.3-3.8 20.6-5.2 0.5-0.1 9.4 1.6 10.3 2.2 8.2 0.9 39.3 12.2 47.8 15.4z"/><path class="P" d="m418.8 442.5c7.7 9.7 10.3 14.5 20.4 22.5 15.5 12.4 8.3-3.8 20.6-5.3 0.5 0 9.4 1.7 10.3 2.3-3.6 3.1-6.1 0-9.5 0.6-2.5 0.5-4.7 6.6-6.4 8.9-3.5 4.8-11.2-0.1-13.5 0.2-0.4 1.4-0.2 1.1-0.9 2.3-6.9 0.3-21.4-25.8-21.9-30.6z"/><path class="P" d="m265.3 396.9c5.2-3.6 26.2-10.7 33.6-13.6 15.2-5.8 33.8-21 49.6-19.2l-0.4 1c-2.4 0.8-3.5 1-6 1.4-6.7 1.3-9.5 4-13.6 9.3-2.1 2.7-1.7 3.9-4.7 5.8 1.1 3.2-1 6.3-2.8 8.7l-1.5-0.7c-2 1.3-3.5 4.9-5.5 6.3-4.4 3.2-9.6 5.4-14.2 8.3-8.1 4.9-17.8 16.5-28.3 10.7l3.6-2.7c1-0.8 0.9-0.8 1.4-2-0.6-6.6-0.5-4.5-3.8-9.6 1.8-0.9 2.8-1.3 4.1-2.7l-0.4-0.7c-4.5-1.1-6 4.2-10.7 3.7-0.9-1.1-1.4-1.4-1.5-2.8z"/><path class="m" d="m323.8 381.6c1.1 3.2-1 6.3-2.8 8.7l-1.4-1.7c-1.3 0.2-0.9 0.3-2 0 4.2-3.7 3.1-5.1 6.2-7z"/><path class="w" d="m259.1 493.9l0.4-2.2c-0.6-0.2-0.8 0.1-1.7 0.5l-0.3-0.5c1.2-1.3 4-4.2 4.6-5.6-1.5 0.2-1.2 0.3-2.7 0.1 0.8-1.5 2.6-3.7 4-4.7 3.4-2.5 3-7.1 5.5-10.8l0.7-0.1 0.8 1c5.8-4.8 4.7-5.6 12.3-8.9 1.9 0.7 1.2 0.1 2.3 1.6-0.7 11.7 14.3 10.1 13.3 21.3-0.5 4.6-2 8.1-5.6 11.2-6.2 5.5-12.8 2.4-19.8 4.4-2.6 0.7-4.1 0.1-6.4-1.1-1.5-3.2 1.3-5.5 0.1-8.1-2.1-0.6-5.6 0.8-7.5 1.9z"/><path class="Y" d="m323.8 381.6c3-1.9 2.6-3.1 4.7-5.8 4.1-5.3 6.9-8 13.6-9.3l-0.8 2 0.4 0.4 3.4-0.6c3.9-0.8 9.9 2.7 14.6 3.4l0.1 1.6c-6.2-0.3-7.1-3.5-15.1-3-11.9 11.6-22.1 27.7-38.6 33.4-11.3 3.8-18.6 13.9-30.3 16.4-1.6 0.3-5-2.6-4.3-5.1 10.5 5.7 20.2-5.9 28.3-10.8 4.6-2.9 9.8-5.1 14.2-8.3 2-1.4 3.5-5 5.5-6.3l1.5 0.7c1.8-2.4 3.9-5.5 2.8-8.7z"/><path class="m" d="m340.6 380.3c0.1 0.4 0.2 1 0.3 1.4-1.4 1.8-1.7 1.9-2 4.1-0.7-1.5-0.8-1.5-0.8-3.3 1-1.7 0.6-1.1 2.5-2.2z"/><path class="m" d="m342.2 378.4l0.7 0.1 0.4 0.6-0.9 0.5-1.1-0.1c0.3-0.6 0.5-0.6 0.9-1.1z"/></svg>